<svg width="40" height="40" viewBox="0 0 40 40" fill="none" xmlns="http://www.w3.org/2000/svg">
<rect width="40" height="40" rx="20" fill="#6601CB"/>
<g clip-path="url(#clip0_2932_1242)">
<path d="M18.7034 14.8146L20.648 12.8701C21.0736 12.4445 21.5789 12.1069 22.1349 11.8765C22.691 11.6462 23.287 11.5277 23.8889 11.5277C24.4908 11.5277 25.0868 11.6462 25.6429 11.8765C26.1989 12.1069 26.7042 12.4445 27.1298 12.8701C27.5554 13.2957 27.893 13.8009 28.1233 14.357C28.3537 14.9131 28.4722 15.5091 28.4722 16.111C28.4722 16.7129 28.3537 17.3089 28.1233 17.8649C27.893 18.421 27.5554 18.9263 27.1298 19.3519L25.1853 21.2964M21.2962 25.1855L19.3516 27.1301C18.926 27.5557 18.4208 27.8933 17.8647 28.1236C17.3086 28.3539 16.7126 28.4725 16.1107 28.4725C14.8951 28.4725 13.7294 27.9896 12.8698 27.1301C12.0103 26.2705 11.5274 25.1047 11.5274 23.8892C11.5274 22.6736 12.0103 21.5078 12.8698 20.6483L14.8144 18.7037" stroke="white" stroke-width="1.5" stroke-linecap="round" stroke-linejoin="round"/>
<path d="M17.4072 22.5928L22.5927 17.4073" stroke="white" stroke-width="1.5" stroke-linecap="round" stroke-linejoin="round"/>
</g>
<defs>
<clipPath id="clip0_2932_1242">
<rect width="22" height="22" fill="white" transform="translate(4.44336 20) rotate(-45)"/>
</clipPath>
</defs>
</svg>
