<svg width="40" height="40" viewBox="0 0 40 40" fill="none" xmlns="http://www.w3.org/2000/svg">
<rect width="40" height="40" rx="20" fill="#FAE100"/>
<path fill-rule="evenodd" clip-rule="evenodd" d="M20 11C14.477 11 10 14.442 10 18.689C10 21.434 11.872 23.845 14.687 25.205C14.534 25.721 13.703 28.518 13.67 28.74C13.67 28.74 13.65 28.905 13.76 28.968C13.87 29.031 13.999 28.981 13.999 28.981C14.313 28.938 17.647 26.655 18.225 26.259C18.801 26.339 19.394 26.38 20 26.38C25.523 26.38 30 22.936 30 18.689C30 14.442 25.523 11 20 11Z" fill="#3C1D1E"/>
<path fill-rule="evenodd" clip-rule="evenodd" d="M27.3288 20.8691C27.3078 21.0161 27.2278 21.1481 27.1048 21.2401C27.0038 21.3131 26.8848 21.3521 26.7578 21.3521C26.5748 21.3521 26.4068 21.2711 26.2968 21.1301L24.9438 19.3821L24.7438 19.5761V20.8051C24.7438 21.1151 24.4848 21.3671 24.1668 21.3671C23.8498 21.3671 23.5898 21.1151 23.5898 20.8051V16.9551C23.5898 16.6431 23.8498 16.3911 24.1668 16.3911C24.4848 16.3911 24.7438 16.6431 24.7438 16.9551V18.1651L26.3528 16.5951C26.4358 16.5141 26.5498 16.4701 26.6738 16.4701C26.8168 16.4701 26.9618 16.5301 27.0698 16.6361C27.1718 16.7331 27.2318 16.8601 27.2398 16.9921C27.2488 17.1251 27.2028 17.2471 27.1128 17.3351L25.7978 18.6171L27.2188 20.4521C27.3108 20.5721 27.3498 20.7201 27.3288 20.8691Z" fill="#FAE100"/>
<path fill-rule="evenodd" clip-rule="evenodd" d="M22.8122 21.2921H20.9622C20.6572 21.2921 20.4092 21.0601 20.4092 20.7751V16.9551C20.4092 16.6431 20.6732 16.3911 20.9982 16.3911C21.3222 16.3911 21.5872 16.6431 21.5872 16.9551V20.2611H22.8122C23.1182 20.2611 23.3662 20.4921 23.3662 20.7751C23.3662 21.0601 23.1182 21.2921 22.8122 21.2921Z" fill="#FAE100"/>
<path fill-rule="evenodd" clip-rule="evenodd" d="M19.8974 21.2901C19.7844 21.3411 19.6574 21.3671 19.5304 21.3671C19.2904 21.3671 19.1054 21.2701 19.0504 21.1181L18.7664 20.3901H17.0054L16.7214 21.1191C16.6644 21.2711 16.4804 21.3671 16.2394 21.3671C16.1124 21.3671 15.9854 21.3411 15.8734 21.2891C15.7144 21.2181 15.5604 21.0201 15.7364 20.4901L17.1164 16.9481C17.2144 16.6791 17.5094 16.4001 17.8854 16.3911C18.2624 16.4001 18.5584 16.6791 18.6544 16.9481L20.0334 20.4891C20.2094 21.0201 20.0574 21.2191 19.8974 21.2901Z" fill="#FAE100"/>
<path fill-rule="evenodd" clip-rule="evenodd" d="M15.0487 20.8371C15.0487 21.1341 14.7897 21.3751 14.4727 21.3751C14.1527 21.3751 13.8937 21.1341 13.8937 20.8371V17.4941H12.9937C12.6827 17.4941 12.4297 17.2471 12.4297 16.9421C12.4297 16.6401 12.6827 16.3911 12.9937 16.3911H15.9477C16.2607 16.3911 16.5157 16.6401 16.5157 16.9421C16.5157 17.2471 16.2607 17.4941 15.9477 17.4941H15.0487V20.8371Z" fill="#FAE100"/>
<path fill-rule="evenodd" clip-rule="evenodd" d="M17.3086 19.3924H18.4606L17.8846 17.7944L17.3086 19.3924Z" fill="#3C1D1E"/>
</svg>
