<svg width="158" height="48" viewBox="0 0 158 48" fill="none" xmlns="http://www.w3.org/2000/svg">
<path d="M157.053 37.9932H38.7539V38.2562H157.053V37.9932Z" fill="#E30613"/>
<path d="M99.6048 30.2827L98.584 34.2908H98.5715L97.6133 30.2827H95.6969L94.125 36.4389H95.5466L96.5486 32.5059H96.5612L97.5694 36.4389H99.4608L101.033 30.2827H99.6048Z" fill="white"/>
<path d="M90.8935 33.3702L91.9769 31.6041H91.9895L92.0959 33.3702H90.8872H90.8935ZM91.382 30.2827C90.0481 32.3431 88.7329 34.4286 87.3301 36.4389H89.1087L90.1733 34.6603H92.0771L92.1836 36.4389H93.9058C93.6992 34.391 93.4549 32.2993 93.3297 30.2827H91.382Z" fill="white"/>
<path d="M103.043 31.937C103.131 31.6113 103.6 31.4986 103.851 31.4923C104.327 31.4798 104.609 31.6113 104.922 31.8054C104.922 31.8054 105.229 30.5905 105.241 30.5279C104.734 30.246 104.183 30.1709 103.776 30.1709C102.335 30.1709 101.584 31.0414 101.44 31.7679C101.164 33.202 102.874 33.9974 102.692 34.6549C102.561 35.1434 102.091 35.1747 101.816 35.1747C101.365 35.1747 100.933 35.0307 100.551 34.8115L100.206 36.2456C100.663 36.4022 101.321 36.5463 101.853 36.5463C103.538 36.5463 104.07 35.7885 104.252 34.9493C104.552 33.5151 102.843 32.7323 103.043 31.937Z" fill="white"/>
<path d="M86.5899 31.937C86.6713 31.6114 87.141 31.4987 87.3915 31.4924C87.8737 31.4799 88.1556 31.6114 88.4687 31.8055C88.4687 31.8055 88.8632 30.6344 88.8695 30.5781C88.3372 30.2336 87.7297 30.1772 87.3226 30.1772C85.876 30.1772 85.1244 31.0478 84.9867 31.7742C84.7174 33.2084 86.4208 34.0037 86.2329 34.6613C86.0952 35.1498 85.6255 35.1811 85.3624 35.1811C84.9115 35.1811 84.4794 35.037 84.0974 34.8179L83.7529 36.252C84.2038 36.4086 84.8677 36.5526 85.3937 36.5526C87.0784 36.5526 87.617 35.7948 87.7923 34.9556C88.0992 33.5215 86.3832 32.7574 86.5899 31.9433" fill="white"/>
<path d="M128.583 34.2787H128.576L127.618 30.2769H125.702L124.13 36.4268H125.558L126.56 32.4938H126.572L127.568 36.4268H129.466L131.031 30.2769H129.61L128.583 34.2787Z" fill="white"/>
<path d="M110.502 31.592H112.844L113.183 30.2769H109.225L107.646 36.4268H109.275L109.895 33.9906H111.861L112.187 32.6754H110.233L110.502 31.592Z" fill="white"/>
<path d="M136.185 30.2769H131.607L131.269 31.592H132.753L131.513 36.4268H133.135L134.369 31.592H135.847L136.185 30.2769Z" fill="white"/>
<path d="M136.756 30.2769L135.184 36.4268H136.806L138.378 30.2769H136.756Z" fill="white"/>
<path d="M142.043 33.9906L142.387 32.6692H140.352L140.627 31.592H143.195L143.533 30.2769H139.343L137.771 36.4268H141.961L142.299 35.1053H139.732L140.02 33.9906H142.043Z" fill="white"/>
<path d="M152.432 33.9906L152.77 32.6692H150.697L150.972 31.592H153.54L153.872 30.2769H149.689L148.11 36.4268H152.3L152.638 35.1053H150.077L150.359 33.9906H152.432Z" fill="white"/>
<path d="M122.682 33.3583C122.419 34.3415 121.667 35.2057 120.747 35.2057C119.764 35.2057 119.513 34.3227 119.751 33.3708C119.989 32.4189 120.703 31.5233 121.68 31.5233C122.657 31.5233 122.907 32.3688 122.682 33.3583ZM122.024 30.1831C120.196 30.1831 118.655 31.3292 118.135 33.3583C117.615 35.4061 118.567 36.5522 120.409 36.5522C122.131 36.5522 123.696 35.5376 124.273 33.5399C124.868 31.373 123.866 30.1831 122.031 30.1831" fill="white"/>
<path d="M155.808 31.9307C155.895 31.6113 156.365 31.4923 156.616 31.4861C157.092 31.4735 157.38 31.605 157.68 31.7992C157.68 31.7992 157.993 30.5842 158 30.5216C157.499 30.2335 156.941 30.1709 156.534 30.1709C155.094 30.1709 154.336 31.0351 154.204 31.7616C153.929 33.1957 155.639 33.9911 155.451 34.6487C155.313 35.1434 154.843 35.1685 154.58 35.1685C154.123 35.1685 153.691 35.0182 153.315 34.8052L152.971 36.2331C153.428 36.3959 154.092 36.5337 154.612 36.5337C156.296 36.5337 156.835 35.7759 157.01 34.9368C157.317 33.4964 155.582 32.7073 155.808 31.9244" fill="white"/>
<path d="M116.408 33.7213C117.228 33.571 117.867 32.8445 118.042 32.1494C118.349 30.9344 117.999 30.2769 116.633 30.2769H113.884L112.318 36.4268H113.865L115.105 31.567H115.907C116.139 31.567 116.64 31.567 116.477 32.2183C116.351 32.7068 115.976 33.0261 115.262 33.0136H114.686L115.256 36.4205H117.003C117.003 36.4205 116.433 33.8465 116.414 33.715" fill="white"/>
<path d="M146.877 33.7213C147.697 33.571 148.33 32.8383 148.511 32.1494C148.824 30.9344 148.461 30.2769 147.102 30.2769H144.353L142.787 36.4268H144.34L145.58 31.567H146.376C146.607 31.567 147.108 31.567 146.939 32.2245C146.814 32.7068 146.444 33.0324 145.731 33.0199H145.154L145.718 36.4268H147.459C147.459 36.4268 146.895 33.8528 146.877 33.7213Z" fill="white"/>
<path d="M61.7639 36.4268L62.1021 35.1116H59.5344L59.8225 33.9969H61.9142L62.2524 32.6817H60.1607L60.4362 31.5983H63.0039L63.3358 30.2831L59.1461 30.2769L57.5742 36.4268H61.7639Z" fill="white"/>
<path d="M50.9114 36.4264L51.2496 35.1112H48.6819L48.9637 33.9965H51.0366L51.3685 32.6813H49.3019L49.5774 31.5979H52.1451L52.4833 30.2827H48.2936L46.7217 36.4264H50.9114Z" fill="white"/>
<path d="M65.2775 36.5268C65.5656 36.5268 66.3797 36.4329 66.8369 36.3515L67.2314 34.9298C66.7555 35.0551 66.2607 35.1803 65.6219 35.1803C64.6262 35.1803 64.3757 34.2973 64.6199 33.3454C64.8328 32.525 65.5781 31.5042 66.8431 31.5042C67.2627 31.5042 67.6448 31.6106 68.0143 31.7484L68.365 30.3706C67.9892 30.2266 67.3692 30.1577 66.9183 30.1577C65.0646 30.1577 63.5114 31.2975 62.9791 33.3391C62.453 35.387 63.4238 36.5268 65.2775 36.5268Z" fill="white"/>
<path d="M69.2679 36.4268L70.8398 30.2769H69.2116L67.6396 36.4268H69.2679Z" fill="white"/>
<path d="M41.973 32.03H41.9918L41.9041 36.4263L43.2881 36.4326L45.4801 32.0237H45.4989L44.3716 36.4263H45.7494L47.315 30.2827H45.1607L43.2443 34.1468H43.2318L43.332 30.2827H41.0524L39.4805 36.4263H40.852L41.973 32.03Z" fill="white"/>
<path d="M71.6531 36.4268L72.6551 32.5063H72.6739L73.6696 36.4268H75.5609L77.1329 30.2831H75.7112L74.6904 34.2787H74.6779L73.7197 30.2831L71.8096 30.2769L70.2314 36.4268H71.6531Z" fill="white"/>
<path d="M56.1262 33.3514C55.8945 34.2532 55.2557 35.1112 54.3539 35.1112H53.6525L54.548 31.5979H55.3559C56.2201 31.5979 56.4143 32.2116 56.1199 33.3514M57.7482 33.3514C58.4121 30.7524 57.003 30.2827 56.2389 30.2827H53.3205L51.7549 36.4326H54.3288C56.1011 36.4326 57.2785 35.1425 57.742 33.3514" fill="white"/>
<path d="M79.1553 31.937C79.2305 31.6114 79.7064 31.4987 79.9569 31.4924C80.4329 31.4861 80.7147 31.6114 81.0279 31.8055C81.0279 31.8055 81.3347 30.5906 81.3472 30.528C80.8462 30.2399 80.2889 30.1772 79.8881 30.1772C78.4351 30.1772 77.6899 31.0415 77.5458 31.768C77.2765 33.2021 78.98 33.9974 78.7984 34.655C78.6606 35.1498 78.1909 35.1748 77.9216 35.1748C77.4707 35.1748 77.0386 35.0308 76.6628 34.8116L76.3184 36.2457C76.7693 36.4023 77.4394 36.5463 77.9654 36.5463C79.6501 36.5463 80.1824 35.7886 80.364 34.9494C80.6709 33.5152 78.9487 32.7512 79.1616 31.937" fill="white"/>
<path d="M16.5961 39.8336C17.0471 39.5706 18.0616 39.0258 18.1743 38.9569C18.3685 38.8441 18.4875 38.8567 18.4875 38.9193C18.5125 39.151 18.5062 39.627 18.8006 39.7272C18.8883 39.7522 19.1012 39.652 19.145 39.7084C19.2515 39.8649 19.2578 39.8399 19.2828 39.8837C19.3204 39.9401 19.4644 39.9088 19.4957 39.9401C19.5772 40.0153 19.4957 40.1092 19.5396 40.1593C19.6085 40.2407 19.7525 40.1092 19.8277 40.128C19.9592 40.153 19.9905 40.3033 19.9654 40.3973C19.9341 40.5538 20.0281 40.6728 20.2786 40.4662C20.4163 40.3534 20.4226 40.4098 20.5353 40.3534C20.6042 40.3221 20.717 40.3221 20.7608 40.3722C20.8109 40.4223 20.886 40.5037 20.9549 40.5288C21.0614 40.5664 21.1741 40.5288 21.243 40.5538C21.337 40.5914 21.3432 40.7355 21.4246 40.7542C21.506 40.7668 21.5937 40.6039 21.6501 40.654C21.8004 40.7918 21.5248 41.0423 21.719 41.0987C21.8254 41.13 21.863 41.0423 21.9507 41.0298C22.0321 41.0173 22.0822 40.9171 22.1574 40.9171C22.2325 40.9171 22.2826 40.9985 22.3703 40.9484C22.4454 40.9108 22.5081 40.8795 22.5707 40.8357C22.6772 40.773 22.7836 40.8043 22.84 40.7605C22.9151 40.7041 22.8588 40.5413 23.0717 40.5852C23.2909 40.6227 23.0404 40.8231 23.1281 40.9108C23.2032 40.9734 23.3848 40.9108 23.4475 40.892C23.5602 40.8544 23.6729 40.7104 23.7105 40.6102C23.7543 40.485 23.9359 40.0904 24.0111 39.9839C24.0862 39.8712 24.2679 39.4516 24.3618 39.3076C24.4557 39.1635 24.844 38.5498 24.8753 38.4496C24.9129 38.3494 25.0507 38.2241 25.0883 38.149C25.1196 38.0738 25.201 37.8359 25.3012 37.6417C25.3951 37.4476 25.6582 37.0656 25.6895 36.9904C25.7145 36.9215 25.9212 36.4456 25.9901 36.3015C26.059 36.1575 26.3157 35.8318 26.3721 35.669C26.4285 35.5124 26.6038 35.1805 26.6038 35.1805L26.7854 34.8799C26.7854 34.8799 26.8418 34.7484 26.9295 34.5668C27.0172 34.3852 27.2677 34.0031 27.3428 33.8654C27.4117 33.7338 27.6184 33.4583 27.6184 33.4583L27.7749 33.1076L27.8877 32.8383C27.8877 32.8383 27.9879 32.5252 28.0317 32.4437C28.0818 32.3561 28.2446 32.1557 28.2947 32.0429C28.3386 31.9365 28.4889 31.4542 28.5578 31.3102C28.6266 31.1662 28.9774 30.5399 29.0149 30.4209C29.0462 30.3019 29.4157 29.6506 29.4471 29.5191C29.4846 29.3813 29.4972 29.206 29.5473 29.1183C29.5974 29.0369 29.7414 28.8177 29.7664 28.7551C29.7852 28.6924 30.0295 28.1163 30.067 28.0349C30.1046 27.9534 30.1234 27.7969 30.2236 27.7969C30.3176 27.7969 30.3864 27.8971 30.4491 27.991C30.5242 28.0912 30.6683 28.0787 30.7497 28.1601C30.8311 28.2478 31.1129 28.5484 31.1254 28.5922C31.138 28.6423 31.2883 28.6549 31.3321 28.6987C31.3634 28.7488 31.3947 28.8678 31.4386 28.8928C31.4824 28.9179 31.7266 29.087 31.7767 29.1559C31.8268 29.231 31.8832 29.3751 31.9458 29.4189C32.0085 29.4627 32.284 29.6381 32.3216 29.707C32.3529 29.7759 32.7537 30.2643 32.8038 30.3458C32.8477 30.4272 32.8852 30.5712 32.9228 30.6338C32.9541 30.6965 33.1044 30.7779 33.1169 30.8405C33.1295 30.8969 33.142 31.1161 33.1796 31.1787C33.2109 31.2413 33.38 31.3102 33.405 31.3728C33.4301 31.4292 33.5052 31.6609 33.5365 31.6985C33.5679 31.7298 33.643 31.7862 33.6681 31.83C33.6931 31.8801 33.7182 32.1431 33.7495 32.187C33.787 32.2371 33.906 32.4437 33.9436 32.5252C33.9812 32.6128 34.1064 32.7631 34.1252 32.8258C34.1503 32.8884 34.1628 33.1264 34.1816 33.2078C34.2066 33.2955 34.3131 33.4708 34.3256 33.5209C34.3319 33.5648 34.3632 33.7151 34.3632 33.7151L34.4571 33.9468C34.4571 33.9468 34.5636 34.1722 34.5636 34.2599C34.5636 34.3476 34.5887 34.4415 34.6012 34.4979C34.6137 34.5542 34.7077 34.7108 34.7077 34.7609C34.7077 34.811 34.8392 35.0866 34.8392 35.0866C34.8392 35.0866 34.8141 35.3245 34.8392 35.3872C34.8642 35.4435 34.9707 35.6126 34.9707 35.6753C34.9707 35.7379 34.9394 35.8882 34.9394 35.8882L34.9957 35.9884C34.9957 35.9884 34.9644 36.1199 34.9957 36.17C35.0145 36.2201 34.9707 36.3266 34.9957 36.3641C35.0333 36.3955 35.1335 36.6522 35.1335 36.6522C35.0646 36.7399 30.0295 39.0633 27.8751 40.0654C24.7751 41.512 18.3184 44.7498 17.6295 45.1506C16.9406 45.5452 16.5147 45.7769 16.3456 45.6892C15.9636 45.495 15.3374 44.9439 14.9178 43.7603C14.5545 42.7645 14.5545 41.9316 14.5858 41.5183C14.6109 41.2051 14.5858 40.9609 15.0681 40.6854C15.2372 40.5914 16.1202 40.0904 16.5711 39.8274" fill="#E30613"/>
<path d="M7.65909 22.0284C7.68414 22.0785 7.79061 22.0722 7.86576 22.0847C7.9096 22.0972 7.99102 22.1724 8.03486 22.1787C8.08496 22.1787 8.15386 22.1599 8.18517 22.1787C8.26032 22.235 8.2478 22.3164 8.2979 22.3853C8.34801 22.4542 8.37306 22.5795 8.44821 22.6045C8.5171 22.6296 8.61105 22.617 8.64236 22.6859C8.66741 22.7548 8.61105 22.8675 8.66741 22.9615C8.79893 23.1995 8.67994 23.8633 8.8052 23.9134C8.92419 23.9572 9.28744 23.8445 9.41269 23.7318C9.53795 23.6191 9.72584 23.4124 9.81978 23.3748C10.0014 23.2934 10.3647 23.093 10.54 23.0617C10.7154 23.0241 10.8031 22.7423 10.9722 22.7235C11.1412 22.711 11.0786 22.5732 11.2039 22.5294C11.3229 22.4793 11.5483 22.354 11.6235 22.4292C11.6548 22.4605 11.7237 22.5544 11.8364 22.5983C11.9617 22.6484 12.1057 22.5795 12.1308 22.7298C12.1621 22.949 12.4878 22.7548 12.4878 22.7548C12.4878 22.7548 12.8886 22.4981 13.0577 22.4229C13.2268 22.3477 13.6777 22.116 13.6777 22.116C13.6777 22.116 14.0284 21.9344 14.1787 21.8655C19.6087 19.2603 23.8925 17.8199 27.8256 16.2981C33.9444 13.9245 44.5412 11.2065 46.5515 10.7055C46.7645 10.6554 47.2342 10.5803 47.2906 10.5427C47.3469 10.5114 47.4471 10.4863 47.491 10.2922C47.5411 10.0981 47.3908 9.83503 47.3908 9.74109C47.3908 9.64715 47.61 9.25887 47.635 9.08978C47.6538 8.92069 47.491 8.89564 47.491 8.89564C47.491 8.89564 47.5098 8.68897 47.4659 8.5324C47.4221 8.3821 47.1528 8.24432 47.1027 8.12533C47.0588 8.00634 47.1027 7.64311 47.0588 7.52412C47.015 7.40513 46.8647 7.30493 46.8647 7.30493C46.8647 7.30493 46.9023 7.2423 46.8647 7.13584C46.8334 7.02937 46.7206 7.03564 46.7206 7.03564C46.7206 7.03564 46.7645 6.80392 46.7457 6.7225C46.7269 6.64109 46.6017 6.57846 46.6017 6.57846C46.6017 6.57846 46.4576 6.48453 46.4576 6.39059C46.4576 6.29665 46.4326 6.22149 46.3574 6.17139C46.2822 6.12129 46.0693 6.12129 45.9942 6.1025C45.919 6.07745 45.7562 6.03362 45.6309 6.0524C45.5119 6.07745 45.4618 6.17139 45.1236 6.24028C44.7854 6.31543 44.6414 6.24028 44.4973 6.26533C44.3533 6.29038 44.1904 6.39059 44.0151 6.43442C42.3742 6.86028 34.8525 9.04594 29.3099 11.1314C24.1555 13.0665 18.0116 15.8659 14.2664 17.8073C11.4356 19.2853 9.91999 20.137 9.2937 20.5253C8.96803 20.7257 8.61731 20.9574 8.56094 21.0514C8.47326 21.2017 8.37932 21.4209 8.19143 21.4459C7.96597 21.4835 7.99728 21.6025 7.92839 21.6213C7.84071 21.6401 7.74677 21.734 7.67161 21.8029C7.60272 21.8718 7.62777 21.9657 7.65283 22.0221" fill="#E30613"/>
<path d="M31.0757 18.6658C30.8252 18.5155 30.9066 18.3777 31.201 18.2525C32.9921 17.4884 37.5199 15.8727 40.1189 15.046C42.3359 14.3446 48.4545 12.3468 50.1579 11.8584C50.5712 11.7394 50.7341 11.7456 50.9157 11.9335C51.3791 12.4282 51.83 13.0858 52.2559 13.9062C52.6442 14.664 52.9824 15.76 53.1139 16.4489C53.2141 16.9561 52.9761 17.0438 52.7068 17.1628C50.8155 18.0082 46.1373 20.0561 44.1959 20.9767C42.2921 21.8723 38.8226 23.5444 37.6452 24.1394C37.1442 24.3899 37.2256 24.4901 36.8937 24.108C36.7872 23.9953 36.6244 23.7198 36.5805 23.6509C36.5304 23.5757 35.8854 22.9996 35.8102 22.9307C35.7414 22.8555 35.3781 22.4234 35.2779 22.3545C35.184 22.2794 34.8709 21.8472 34.7769 21.7971C34.6767 21.747 34.5139 21.6719 34.445 21.603C34.3698 21.5278 34.2446 21.3775 34.1757 21.3337C34.1068 21.2836 33.9377 21.1145 33.9377 21.1145L33.7123 20.9141L33.5181 20.6949C33.5181 20.6949 33.349 20.482 33.23 20.4319C33.1111 20.3818 32.9482 20.1876 32.8919 20.1125C32.848 20.0436 32.466 19.5614 32.2656 19.4361C32.0715 19.3171 31.608 19.0165 31.5141 18.9414C31.4201 18.8725 31.2886 18.7973 31.082 18.6721" fill="#E30613"/>
<path d="M37.9649 25.2668C37.7833 25.079 38.015 25.0602 38.2279 24.9725C39.0233 24.6656 43.739 23.1876 47.8473 22.1042C51.9431 21.0333 57.8612 19.7996 58.7443 19.6242C59.1138 19.5491 59.2578 19.6054 59.4457 19.906C59.6649 20.2567 60.1158 21.4216 60.2911 22.361C60.5103 23.5571 60.2974 24.7721 60.1972 25.0602C60.1095 25.2981 59.7776 25.3169 58.976 25.5361C58.4938 25.6676 56.4522 26.1937 55.613 26.4379C54.6485 26.7198 52.0996 27.4525 51.154 27.7781C49.9891 28.1727 48.4548 28.68 48.4548 28.68L40.3322 28.8177C40.3322 28.8177 40.2132 28.2729 40.1443 28.2228C40.0691 28.1727 39.9501 27.9097 39.875 27.8345C39.7998 27.7594 39.7059 27.4963 39.7059 27.4963C39.7059 27.4963 39.637 27.2082 39.5619 27.1581C39.493 27.108 39.3176 26.6947 39.2425 26.6446C39.1673 26.5945 39.0045 26.3878 38.9356 26.2876C38.8604 26.1874 38.8166 26.0684 38.6976 25.9745C38.5786 25.8806 38.4283 25.6864 38.3344 25.6363C38.2342 25.5862 38.1528 25.4422 37.9649 25.2543" fill="#E30613"/>
<path d="M28.1441 9.60416C27.9124 9.61042 27.7057 9.60416 27.6493 9.54153C27.6243 9.50395 27.6493 9.43507 27.593 9.39123C27.5366 9.34113 27.4239 9.35991 27.3863 9.39123C27.355 9.41628 27.3613 9.41628 27.2798 9.44133C27.1984 9.46638 26.8916 9.35991 26.7788 9.39749C26.6724 9.43507 26.4407 9.44133 26.3655 9.40375C26.2904 9.36618 26.2778 9.15325 26.1401 9.09688C26.0712 9.06557 25.8457 8.94032 25.7768 8.81507C25.7017 8.68981 25.5075 8.49567 25.4699 8.40799C25.4261 8.32032 25.3697 8.17628 25.3384 8.10113C25.3134 8.02597 25.2382 7.87567 25.1944 7.81931C25.1506 7.76294 25.0879 7.71911 25.0441 7.669C24.994 7.61264 24.9564 7.44355 24.9063 7.3684C24.8813 7.33082 24.8249 7.25567 24.7998 7.19305C24.7685 7.13668 24.7685 7.07406 24.7497 7.00517C24.7247 6.93628 24.637 6.84234 24.6245 6.77971C24.6057 6.71709 24.5807 6.29123 24.5869 5.96557C24.5932 5.63991 24.5869 5.35183 24.6245 5.21406C24.6558 5.08254 24.7247 4.95729 24.7497 4.82577C24.7748 4.69426 24.9502 4.24961 24.994 4.03668C25.0378 3.83002 25.1443 3.44173 25.2007 3.30396C25.2508 3.16618 25.3948 2.80921 25.4699 2.69022C25.5451 2.57123 25.8144 2.17042 25.9209 2.03264C26.0273 1.89487 26.5283 1.40012 26.6473 1.31244C26.7663 1.22476 27.0356 1.02436 27.1233 0.961734C27.1734 0.924158 27.5241 0.679916 27.6368 0.611027C27.7182 0.560926 27.8497 0.560926 27.8497 0.560926L27.9687 0.441936C27.9687 0.441936 28.0314 0.366785 28.094 0.322946C28.1566 0.279108 28.3132 0.279108 28.3132 0.279108C28.3132 0.279108 28.4885 0.14133 28.6701 0.178906C28.7516 0.191431 28.8017 0.0473909 28.8768 0.0348657C28.952 0.0160778 29.2087 -0.0214979 29.2463 0.0160778C29.2839 0.0536536 29.3277 0.0974919 29.478 0.128805C29.6221 0.153856 29.7473 0.122542 29.7974 0.135068C29.8726 0.153856 29.954 0.247795 30.0041 0.266583C30.0605 0.285371 30.7243 0.892845 30.812 1.04315C30.8433 1.09325 30.8558 1.19345 30.8683 1.22476C30.8934 1.27487 31.0061 1.35002 31.0499 1.51285C31.0813 1.64436 31.2128 1.68194 31.2316 1.87608C31.2316 1.9888 31.4508 2.08274 31.5134 2.31446C31.5322 2.37082 31.5572 2.60254 31.576 2.63385C31.5885 2.67143 31.6386 2.68396 31.6637 2.76537C31.6887 2.84678 31.7138 2.96577 31.7013 3.06598C31.6887 3.16618 31.8703 3.53567 31.8578 3.76113C31.839 3.98658 31.7952 4.23082 31.7388 4.39991C31.6825 4.56901 31.72 4.89466 31.6825 5.03244C31.6512 5.16396 31.551 5.48961 31.5259 5.58981C31.5071 5.69002 31.2253 6.37264 31.1815 6.44779C31.1376 6.52294 30.9748 6.82981 30.9059 6.92375C30.837 7.01143 30.2734 7.78799 30.1794 7.8882C30.0855 7.9884 29.835 8.17628 29.7849 8.25143C29.716 8.35163 29.6659 8.47062 29.5908 8.58335C29.4843 8.7587 29.3277 8.62719 29.2588 8.75244C29.1586 8.92779 28.9708 8.97163 28.9332 9.07183C28.8768 9.2284 28.7578 9.35991 28.7015 9.41001C28.5637 9.51648 28.2819 9.60416 28.1441 9.61042" fill="#E30613"/>
<path d="M11.9053 33.4143C11.9053 33.4143 9.52536 34.2159 8.57967 34.5541C7.67781 34.8735 6.69454 35.2242 6.03068 35.4935C5.22903 35.8191 3.80736 36.4016 3.4629 36.5206C2.93682 36.7084 2.71761 36.5957 2.56731 36.2826C2.42326 35.9694 2.0788 35.3119 1.89091 34.5478C1.69677 33.7775 1.62787 33.1325 1.61535 32.8945C1.60282 32.6628 1.80323 32.2369 2.09133 32.0741C2.37942 31.9175 3.0746 31.4917 3.62573 31.1723C4.68416 30.5585 8.33541 28.6171 10.5086 27.4899C12.8071 26.3 16.4458 24.5402 18.3999 23.5695C20.3539 22.605 23.5542 21.0895 23.9425 20.9204C24.3245 20.7513 24.7316 20.5571 24.9258 20.5571C25.1199 20.5571 25.0448 20.6511 25.0448 20.7262C25.0448 20.8014 24.9821 20.8264 24.9571 20.9705C24.9383 21.1145 24.9508 21.2773 24.9007 21.4214C24.8506 21.5654 24.7254 21.7032 24.7003 21.7971C24.6753 21.8911 24.6565 22.2355 24.5625 22.3545C24.4686 22.4798 24.1179 23.1436 24.049 23.4567C23.9801 23.7699 23.8172 24.2834 23.7484 24.4024C23.6732 24.5214 23.4477 24.9723 23.4227 25.1163C23.3976 25.2604 23.2411 25.5985 23.1972 25.7488C23.1471 25.8929 22.8528 26.4315 22.8089 26.5254C22.7588 26.6193 22.5709 27.2644 22.5208 27.3646C22.4707 27.4648 22.2828 27.7466 22.2828 27.7466L22.1889 28.16C22.1889 28.16 21.9196 28.5482 21.9196 28.6171C21.9196 28.686 21.7254 29.3436 21.6315 29.4876C21.5376 29.6317 21.0804 30.665 20.9802 31.0282C20.8862 31.3915 20.7171 31.9175 20.667 32.0428C20.6169 32.1618 20.3539 32.5939 20.3038 32.7379C20.2537 32.882 20.0407 33.6084 19.9656 33.7525C19.8967 33.8965 19.7025 34.3036 19.7025 34.4539C19.7025 34.6042 19.5585 34.9111 19.4395 35.1741C19.3142 35.4371 19.1765 35.9006 19.1013 36.0696C19.0261 36.2387 18.9322 36.3515 18.9072 36.4517C18.8821 36.5456 18.857 36.8149 18.8383 36.8901C18.8132 36.9589 18.7631 37.0842 18.7631 37.0842C18.6441 37.1406 12.162 39.9274 11.2477 40.3595C10.327 40.7979 3.75099 43.9105 3.33764 44.1046C2.93055 44.2987 2.37942 44.7183 1.98486 44.449C1.46504 44.0983 0.970272 43.3531 0.632077 42.6955C0.35651 42.1507 0.055892 41.2363 0.00578896 40.5787C-0.0505769 39.7458 0.293881 39.5955 1.51514 38.8878C2.11012 38.5434 6.84485 36.0446 8.36673 35.2618C8.79887 35.0426 11.9115 33.4018 11.9115 33.4018" fill="#E30613"/>
<path d="M111.317 44.2233C111.518 43.4781 110.791 42.8894 109.507 42.8894C108.223 42.8894 107.184 43.4718 106.983 44.2233C106.821 44.8433 107.284 45.3444 108.18 45.5009L108.048 45.9957C107.315 46.0082 106.583 46.0207 105.856 46.0207L105.743 46.9664C107.134 46.9664 109.733 46.8411 111.336 46.647C111.374 46.3589 111.436 46.0708 111.474 45.7827C110.754 45.8516 110.046 45.908 109.357 45.9456L109.476 45.4947C110.434 45.3318 111.154 44.8371 111.317 44.2296M114.643 40.3969H113.334L111.298 47.9997H112.607L114.643 40.3969ZM112.119 42.7704L112.344 41.9312H107.196L106.971 42.7704H112.119ZM108.63 41.6056H111.148L111.374 40.7664H108.856L108.63 41.6056ZM110.002 44.2296C109.921 44.524 109.495 44.7431 109.019 44.7431C108.543 44.7431 108.236 44.524 108.317 44.2296C108.399 43.9227 108.812 43.691 109.301 43.691C109.789 43.691 110.09 43.9227 110.002 44.2296ZM102.912 40.3969H101.629L99.5931 47.9997H100.877L101.91 44.1419H103.119L103.363 43.2213H102.155L102.912 40.3969ZM100.044 45.2755C98.8479 44.6116 98.4282 43.5595 98.8541 41.9688L99.1046 41.0231H97.7581L97.4951 42.0064C97.0692 43.6033 96.1486 44.7244 94.4263 45.5009C94.6204 45.7827 94.8146 46.0708 95.0024 46.3526C95.8793 46.0082 97.1569 45.0312 97.589 44.2421C97.6516 44.9811 98.422 45.8141 99.0608 46.1585C99.3865 45.8642 99.7184 45.5761 100.044 45.2692M85.9651 42.689C86.1154 42.1379 86.7104 41.7747 87.3179 41.7747C87.9254 41.7747 88.345 42.1379 88.1947 42.689C88.0444 43.2401 87.4306 43.6096 86.8231 43.6096C86.2156 43.6096 85.8148 43.2401 85.9651 42.689ZM89.2531 45.2254C88.5767 45.2817 87.487 45.3506 86.297 45.3882C85.4265 45.4132 84.5184 45.4132 83.5038 45.4132L83.3848 46.3965C84.1677 46.4027 85.2449 46.3714 86.2156 46.3339C87.13 46.2963 88.4264 46.1961 89.1028 46.1147L89.2469 45.2254H89.2531ZM92.2468 40.3969H90.9566L88.9212 47.9997H90.2113L92.2468 40.3969ZM84.7063 42.689C84.4119 43.7975 85.2449 44.5114 86.5914 44.5114C87.9379 44.5114 89.178 43.7975 89.4786 42.689C89.7729 41.5993 88.9212 40.8791 87.5684 40.8791C86.2156 40.8791 85.0069 41.5993 84.7125 42.689M80.2283 44.9686L80.4663 44.073H72.5688L72.3308 44.9686H80.2283ZM79.696 43.4217L79.934 42.5387H75.3433L75.8506 40.6474H74.5416L73.7964 43.4217H79.7022H79.696ZM78.5624 47.7993L78.8004 46.9163H74.097L74.4665 45.5448H73.1575L72.5563 47.7993H78.5687H78.5624ZM64.3645 47.8619L64.5085 47.3171L64.8655 47.9934C65.3603 47.8682 66.1807 47.4486 66.594 46.9163C66.6943 47.4423 67.2642 47.8557 67.6525 47.9496L68.5418 47.0666C67.7214 46.8599 67.427 46.2337 67.6462 45.4258L67.8153 44.787H66.5439L66.3748 45.4258C66.1494 46.265 65.4479 46.8223 64.5837 47.0603L65.1786 44.8496H63.9699L63.757 45.6512H63.0117L63.2184 44.8809H62.0034L61.2017 47.8619H64.377H64.3645ZM61.7904 42.5262C61.5086 43.5783 62.2977 44.3048 63.6129 44.3048C64.9281 44.3048 66.1118 43.5846 66.3936 42.5262C66.6817 41.4615 65.8613 40.7539 64.5649 40.7539C63.2685 40.7539 62.0785 41.4615 61.7904 42.5262ZM68.4792 44.4488L69.5689 40.3906H68.2474L67.809 42.0377H66.832L66.5878 42.9458H67.5648L67.164 44.4551H68.4854L68.4792 44.4488ZM63.043 42.5324C63.187 41.9939 63.7069 41.6682 64.3144 41.6682C64.9219 41.6682 65.2851 42.0001 65.1411 42.5324C64.997 43.0773 64.4459 43.4092 63.8446 43.4092C63.2434 43.4092 62.8927 43.071 63.0367 42.5324M63.3749 47.0227H62.6296L62.78 46.4528H63.5252L63.3749 47.0227ZM55.4085 46.4153C55.2958 46.8411 54.632 47.1042 53.5547 47.1042C52.4775 47.1042 52.0015 46.8411 52.1143 46.4153C52.227 45.9894 52.9034 45.7201 53.9242 45.7201C55.0015 45.7201 55.5213 45.9957 55.4085 46.4153ZM57.1684 44.6743L58.3145 40.3906H56.9931L56.6736 41.593H55.3334L55.1017 42.4573H56.4419L56.2666 43.1211H54.8574L54.6257 43.9854H56.0348L55.8532 44.668H57.1747L57.1684 44.6743ZM51.2938 40.8728L51.0496 41.7935H53.7614C53.3355 42.7579 51.6821 43.7286 50.0225 44.0042L50.2793 44.8934C52.8971 44.3173 54.8261 42.9583 55.4524 40.8666H51.2938V40.8728ZM56.7551 46.4153C57.0118 45.4508 56.0661 44.8183 54.1685 44.8183C52.2708 44.8183 51.0308 45.4508 50.7678 46.4153C50.511 47.3797 51.4504 47.9934 53.3167 47.9934C55.1831 47.9934 56.4983 47.3734 56.7551 46.4153ZM39.3881 45.2755L39.1501 46.1648H43.8535L43.365 47.9872H44.6677L45.3942 45.2755H43.0895L43.4089 44.073H46.7032L46.9411 43.1838H45.7324C46.127 42.4636 46.4464 41.5179 46.6593 40.6411H40.7847L40.5467 41.5304H45.1312C45.0122 42.0189 44.699 42.7892 44.4861 43.1838H39.0437L38.8057 44.073H42.0999L41.7805 45.2755H39.3944H39.3881Z" fill="white"/>
</svg>
