<svg width="53" height="40" viewBox="0 0 53 40" fill="none" xmlns="http://www.w3.org/2000/svg">
<path d="M14.5231 34.8598C14.9177 34.6296 15.8055 34.1528 15.9042 34.0925C16.0741 33.9939 16.1782 34.0048 16.1782 34.0597C16.2002 34.2624 16.1947 34.679 16.4523 34.7666C16.529 34.7886 16.7153 34.7009 16.7537 34.7502C16.8469 34.8872 16.8523 34.8653 16.8743 34.9037C16.9071 34.953 17.0332 34.9256 17.0606 34.953C17.1318 35.0188 17.0606 35.101 17.099 35.1448C17.1592 35.2161 17.2853 35.101 17.3511 35.1174C17.4662 35.1393 17.4936 35.2709 17.4716 35.3531C17.4442 35.4901 17.5264 35.5942 17.7457 35.4134C17.8662 35.3147 17.8717 35.364 17.9704 35.3147C18.0307 35.2873 18.1293 35.2873 18.1677 35.3311C18.2115 35.375 18.2773 35.4462 18.3376 35.4682C18.4307 35.501 18.5294 35.4682 18.5897 35.4901C18.6719 35.523 18.6774 35.649 18.7486 35.6655C18.8199 35.6764 18.8966 35.5339 18.9459 35.5778C19.0774 35.6983 18.8363 35.9176 19.0062 35.9669C19.0994 35.9943 19.1323 35.9176 19.209 35.9066C19.2802 35.8956 19.3241 35.808 19.3898 35.808C19.4556 35.808 19.4995 35.8792 19.5762 35.8354C19.6419 35.8025 19.6968 35.7751 19.7516 35.7367C19.8447 35.6819 19.9379 35.7093 19.9872 35.6709C20.053 35.6216 20.0037 35.4791 20.19 35.5175C20.3818 35.5504 20.1626 35.7257 20.2393 35.8025C20.3051 35.8573 20.464 35.8025 20.5188 35.786C20.6175 35.7531 20.7161 35.6271 20.749 35.5394C20.7874 35.4298 20.9463 35.0845 21.0121 34.9914C21.0779 34.8927 21.2368 34.5255 21.319 34.3994C21.4012 34.2734 21.741 33.7363 21.7684 33.6486C21.8013 33.5609 21.9219 33.4513 21.9547 33.3855C21.9821 33.3198 22.0534 33.1115 22.1411 32.9416C22.2233 32.7717 22.4535 32.4374 22.4809 32.3716C22.5028 32.3114 22.6837 31.8948 22.7439 31.7688C22.8042 31.6427 23.0289 31.3577 23.0783 31.2152C23.1276 31.0782 23.281 30.7878 23.281 30.7878L23.44 30.5247C23.44 30.5247 23.4893 30.4096 23.566 30.2507C23.6428 30.0917 23.862 29.7574 23.9277 29.6368C23.988 29.5217 24.1689 29.2806 24.1689 29.2806L24.3059 28.9737L24.4046 28.738C24.4046 28.738 24.4922 28.464 24.5306 28.3928C24.5745 28.316 24.7169 28.1406 24.7608 28.042C24.7992 27.9488 24.9307 27.5268 24.991 27.4008C25.0513 27.2747 25.3582 26.7267 25.3911 26.6225C25.4185 26.5184 25.7418 25.9484 25.7692 25.8333C25.8021 25.7128 25.8131 25.5593 25.8569 25.4826C25.9008 25.4113 26.0268 25.2195 26.0487 25.1647C26.0652 25.1099 26.2789 24.6057 26.3118 24.5344C26.3447 24.4632 26.3611 24.3262 26.4488 24.3262C26.531 24.3262 26.5913 24.4139 26.6461 24.4961C26.7119 24.5838 26.8379 24.5728 26.9092 24.644C26.9804 24.7208 27.227 24.9838 27.238 25.0222C27.249 25.066 27.3805 25.077 27.4189 25.1154C27.4463 25.1592 27.4737 25.2633 27.512 25.2853C27.5504 25.3072 27.7641 25.4552 27.808 25.5155C27.8518 25.5812 27.9012 25.7073 27.956 25.7456C28.0108 25.784 28.2519 25.9375 28.2848 25.9977C28.3122 26.058 28.663 26.4855 28.7068 26.5568C28.7452 26.628 28.778 26.7541 28.8109 26.8089C28.8383 26.8637 28.9699 26.9349 28.9808 26.9897C28.9918 27.0391 29.0028 27.2309 29.0356 27.2857C29.063 27.3405 29.211 27.4008 29.2329 27.4556C29.2549 27.5049 29.3206 27.7077 29.348 27.7406C29.3754 27.768 29.4412 27.8173 29.4631 27.8557C29.485 27.8995 29.507 28.1297 29.5344 28.168C29.5672 28.2119 29.6714 28.3928 29.7043 28.464C29.7371 28.5407 29.8468 28.6723 29.8632 28.7271C29.8851 28.7819 29.8961 28.9901 29.9125 29.0614C29.9344 29.1381 30.0276 29.2916 30.0386 29.3354C30.0441 29.3738 30.0715 29.5053 30.0715 29.5053L30.1537 29.7081C30.1537 29.7081 30.2468 29.9054 30.2468 29.9821C30.2468 30.0588 30.2688 30.1411 30.2797 30.1904C30.2907 30.2397 30.3729 30.3767 30.3729 30.4206C30.3729 30.4644 30.488 30.7055 30.488 30.7055C30.488 30.7055 30.4661 30.9138 30.488 30.9686C30.5099 31.0179 30.6031 31.1659 30.6031 31.2207C30.6031 31.2755 30.5757 31.4071 30.5757 31.4071L30.625 31.4948C30.625 31.4948 30.5976 31.6098 30.625 31.6537C30.6414 31.6975 30.6031 31.7907 30.625 31.8236C30.6579 31.851 30.7456 32.0757 30.7456 32.0757C30.6853 32.1524 26.2789 34.1857 24.3936 35.0626C21.6807 36.3286 16.0303 39.1621 15.4274 39.5128C14.8245 39.8581 14.4518 40.0609 14.3039 39.9841C13.9696 39.8142 13.4215 39.332 13.0543 38.2961C12.7364 37.4247 12.7364 36.6958 12.7638 36.3341C12.7858 36.0601 12.7638 35.8463 13.1858 35.6052C13.3338 35.523 14.1066 35.0845 14.5012 34.8543" fill="#E30613"/>
<path d="M6.70229 19.2779C6.72421 19.3217 6.81738 19.3162 6.88314 19.3272C6.92151 19.3382 6.99276 19.4039 7.03112 19.4094C7.07496 19.4094 7.13525 19.393 7.16265 19.4094C7.22842 19.4587 7.21746 19.53 7.2613 19.5903C7.30515 19.6506 7.32707 19.7602 7.39284 19.7821C7.45312 19.804 7.53533 19.7931 7.56273 19.8533C7.58466 19.9136 7.53533 20.0123 7.58466 20.0945C7.69975 20.3027 7.59562 20.8837 7.70523 20.9275C7.80936 20.9659 8.12723 20.8672 8.23684 20.7686C8.34646 20.6699 8.51087 20.4891 8.59308 20.4562C8.75202 20.385 9.06989 20.2096 9.22335 20.1822C9.3768 20.1493 9.45353 19.9027 9.60151 19.8862C9.74948 19.8753 9.69467 19.7547 9.80429 19.7163C9.90842 19.6725 10.1057 19.5629 10.1715 19.6286C10.1989 19.656 10.2592 19.7382 10.3578 19.7766C10.4674 19.8205 10.5935 19.7602 10.6154 19.8917C10.6428 20.0835 10.9278 19.9136 10.9278 19.9136C10.9278 19.9136 11.2786 19.6889 11.4265 19.6232C11.5745 19.5574 11.9691 19.3546 11.9691 19.3546C11.9691 19.3546 12.276 19.1957 12.4076 19.1354C17.1592 16.8555 20.9079 15.5949 24.3497 14.2632C29.7042 12.186 38.9773 9.80746 40.7366 9.36901C40.9229 9.32517 41.334 9.2594 41.3833 9.22652C41.4326 9.19912 41.5203 9.17719 41.5587 9.0073C41.6025 8.8374 41.471 8.60721 41.471 8.52501C41.471 8.4428 41.6628 8.103 41.6847 7.95503C41.7012 7.80705 41.5587 7.78513 41.5587 7.78513C41.5587 7.78513 41.5751 7.60427 41.5368 7.46726C41.4984 7.33572 41.2627 7.21515 41.2189 7.11102C41.1805 7.00689 41.2189 6.68902 41.1805 6.58489C41.1422 6.48075 41.0106 6.39307 41.0106 6.39307C41.0106 6.39307 41.0435 6.33826 41.0106 6.24509C40.9832 6.15192 40.8846 6.1574 40.8846 6.1574C40.8846 6.1574 40.9229 5.95462 40.9065 5.88337C40.8901 5.81213 40.7804 5.75732 40.7804 5.75732C40.7804 5.75732 40.6544 5.67511 40.6544 5.5929C40.6544 5.51069 40.6325 5.44493 40.5667 5.40108C40.5009 5.35724 40.3146 5.35724 40.2488 5.3408C40.1831 5.31887 40.0406 5.28051 39.931 5.29695C39.8268 5.31887 39.783 5.40108 39.487 5.46137C39.1911 5.52714 39.065 5.46137 38.939 5.48329C38.8129 5.50521 38.6704 5.5929 38.517 5.63127C37.0811 6.00395 30.4989 7.91666 25.6486 9.74169C21.1381 11.4352 15.7617 13.885 12.4843 15.584C10.0071 16.8774 8.68077 17.6227 8.13271 17.9625C7.84772 18.1379 7.54081 18.3407 7.49149 18.4229C7.41476 18.5544 7.33255 18.7463 7.16813 18.7682C6.97083 18.8011 6.99824 18.9052 6.93795 18.9216C6.86122 18.9381 6.77901 19.0203 6.71325 19.0806C6.65296 19.1409 6.67488 19.2231 6.69681 19.2724" fill="#E30613"/>
<path d="M27.1942 16.3346C26.9749 16.2031 27.0462 16.0825 27.3038 15.9729C28.8712 15.3043 32.8337 13.8903 35.1081 13.1668C37.0482 12.553 42.4027 10.8047 43.8934 10.3772C44.2552 10.2731 44.3977 10.2786 44.5566 10.443C44.9622 10.876 45.3568 11.4514 45.7294 12.1694C46.0692 12.8325 46.3652 13.7916 46.4803 14.3945C46.568 14.8384 46.3597 14.9151 46.124 15.0193C44.4689 15.7591 40.3749 17.5513 38.6759 18.3569C37.0098 19.1406 33.9736 20.604 32.9433 21.1246C32.5048 21.3438 32.5761 21.4315 32.2856 21.0972C32.1924 20.9986 32.0499 20.7574 32.0116 20.6971C31.9677 20.6314 31.4032 20.1272 31.3375 20.0669C31.2772 20.0011 30.9593 19.6229 30.8716 19.5627C30.7894 19.4969 30.5154 19.1187 30.4332 19.0749C30.3455 19.031 30.203 18.9653 30.1427 18.905C30.0769 18.8392 29.9673 18.7077 29.907 18.6693C29.8467 18.6255 29.6988 18.4775 29.6988 18.4775L29.5015 18.3021L29.3316 18.1103C29.3316 18.1103 29.1836 17.924 29.0795 17.8801C28.9753 17.8363 28.8328 17.6664 28.7835 17.6006C28.7452 17.5403 28.4108 17.1183 28.2355 17.0087C28.0656 16.9046 27.66 16.6415 27.5778 16.5757C27.4956 16.5155 27.3805 16.4497 27.1996 16.3401" fill="#E30613"/>
<path d="M33.2228 22.1117C33.0638 21.9473 33.2666 21.9308 33.4529 21.8541C34.149 21.5855 38.2758 20.2921 41.8711 19.344C45.4554 18.4068 50.6345 17.3271 51.4073 17.1737C51.7306 17.1079 51.8567 17.1572 52.0211 17.4203C52.2129 17.7272 52.6075 18.7466 52.761 19.5687C52.9528 20.6155 52.7665 21.6787 52.6788 21.9308C52.602 22.1391 52.3116 22.1555 51.6101 22.3473C51.1881 22.4624 49.4014 22.9228 48.667 23.1365C47.823 23.3832 45.5924 24.0244 44.7648 24.3094C43.7455 24.6547 42.4027 25.0986 42.4027 25.0986L35.2944 25.2192C35.2944 25.2192 35.1903 24.7423 35.13 24.6985C35.0642 24.6547 34.9601 24.4245 34.8943 24.3587C34.8286 24.2929 34.7464 24.0628 34.7464 24.0628C34.7464 24.0628 34.6861 23.8107 34.6203 23.7668C34.56 23.723 34.4066 23.3612 34.3408 23.3174C34.275 23.2736 34.1325 23.0927 34.0723 23.005C34.0065 22.9173 33.9681 22.8132 33.864 22.731C33.7599 22.6488 33.6283 22.4789 33.5461 22.435C33.4584 22.3912 33.3872 22.2651 33.2228 22.1007" fill="#E30613"/>
<path d="M24.6293 8.40482C24.4265 8.4103 24.2456 8.40482 24.1963 8.35001C24.1744 8.31713 24.1963 8.25684 24.147 8.21848C24.0976 8.17463 23.999 8.19107 23.9661 8.21848C23.9387 8.2404 23.9442 8.2404 23.8729 8.26232C23.8017 8.28424 23.5331 8.19107 23.4345 8.22396C23.3413 8.25684 23.1385 8.26232 23.0728 8.22944C23.007 8.19655 22.9961 8.01021 22.8755 7.96089C22.8152 7.93349 22.6179 7.82388 22.5576 7.71426C22.4918 7.60465 22.3219 7.43476 22.2891 7.35803C22.2507 7.2813 22.2014 7.15525 22.174 7.08948C22.152 7.02371 22.0863 6.89218 22.0479 6.84285C22.0096 6.79353 21.9547 6.75517 21.9164 6.71132C21.8725 6.662 21.8397 6.51402 21.7958 6.44825C21.7739 6.41537 21.7246 6.3496 21.7026 6.2948C21.6752 6.24547 21.6752 6.19067 21.6588 6.13038C21.6369 6.0701 21.5601 5.98789 21.5492 5.93308C21.5327 5.87828 21.5108 5.5056 21.5163 5.22061C21.5218 4.93562 21.5163 4.68351 21.5492 4.56294C21.5766 4.44785 21.6369 4.33824 21.6588 4.22314C21.6807 4.10805 21.8342 3.71893 21.8725 3.53259C21.9109 3.35173 22.0041 3.01194 22.0534 2.89137C22.0972 2.77079 22.2233 2.4584 22.2891 2.35427C22.3548 2.25014 22.5905 1.89938 22.6837 1.77881C22.7768 1.65824 23.2153 1.22528 23.3194 1.14855C23.4235 1.07182 23.6592 0.896441 23.7359 0.841635C23.7798 0.808752 24.0867 0.59501 24.1853 0.534724C24.2566 0.490879 24.3717 0.490879 24.3717 0.490879L24.4758 0.386749C24.4758 0.386749 24.5306 0.320982 24.5854 0.282618C24.6402 0.244254 24.7772 0.244254 24.7772 0.244254C24.7772 0.244254 24.9307 0.123681 25.0896 0.156565C25.1609 0.167526 25.2047 0.0414729 25.2705 0.0305118C25.3363 0.0140701 25.561 -0.0188133 25.5938 0.0140701C25.6267 0.0469535 25.6651 0.0853174 25.7966 0.11272C25.9227 0.134642 26.0323 0.10724 26.0761 0.118201C26.1419 0.134643 26.2131 0.216851 26.257 0.233293C26.3063 0.249734 26.8873 0.781349 26.964 0.912883C26.9914 0.956727 27.0023 1.04442 27.0133 1.07182C27.0352 1.11566 27.1339 1.18143 27.1722 1.32393C27.1996 1.43902 27.3147 1.4719 27.3312 1.6418C27.3312 1.74045 27.523 1.82266 27.5778 2.02544C27.5942 2.07476 27.6162 2.27754 27.6326 2.30495C27.6436 2.33783 27.6874 2.34879 27.7093 2.42004C27.7313 2.49129 27.7532 2.59542 27.7422 2.68311C27.7313 2.77079 27.8902 3.09415 27.8792 3.29145C27.8628 3.48875 27.8244 3.70249 27.7751 3.85047C27.7258 3.99844 27.7587 4.28343 27.7258 4.404C27.6984 4.51909 27.6107 4.80408 27.5888 4.89177C27.5723 4.97946 27.3257 5.57684 27.2873 5.64261C27.249 5.70838 27.1065 5.97693 27.0462 6.05913C26.9859 6.13586 26.4927 6.81545 26.4104 6.90314C26.3282 6.99083 26.109 7.15525 26.0652 7.22101C26.0049 7.3087 25.961 7.41283 25.8953 7.51148C25.8021 7.66494 25.6651 7.54985 25.6048 7.65946C25.5171 7.81291 25.3527 7.85128 25.3198 7.93897C25.2705 8.07598 25.1664 8.19107 25.117 8.23492C24.9965 8.32809 24.7498 8.40482 24.6293 8.4103" fill="#E30613"/>
<path d="M10.4181 29.2418C10.4181 29.2418 8.33553 29.9433 7.50796 30.2393C6.71876 30.5188 5.85831 30.8257 5.27737 31.0614C4.57586 31.3464 3.33177 31.8561 3.03034 31.9602C2.56997 32.1246 2.37815 32.026 2.24662 31.7519C2.12056 31.4779 1.81913 30.9024 1.65472 30.2338C1.48482 29.5597 1.42453 28.9952 1.41357 28.787C1.40261 28.5842 1.57799 28.2115 1.83009 28.069C2.0822 27.932 2.69054 27.5593 3.17283 27.2798C4.09905 26.7427 7.29422 25.0437 9.19597 24.0572C11.2073 23.0159 14.3915 21.4759 16.1015 20.6264C17.8114 19.7824 20.612 18.4561 20.9518 18.3081C21.2861 18.1601 21.6423 17.9902 21.8122 17.9902C21.9821 17.9902 21.9164 18.0724 21.9164 18.1382C21.9164 18.204 21.8616 18.2259 21.8396 18.352C21.8232 18.478 21.8342 18.6205 21.7903 18.7466C21.7465 18.8726 21.6369 18.9932 21.6149 19.0754C21.593 19.1576 21.5766 19.459 21.4944 19.5632C21.4122 19.6728 21.1052 20.2537 21.045 20.5277C20.9847 20.8018 20.8422 21.2512 20.7819 21.3553C20.7161 21.4594 20.5188 21.854 20.4969 21.9801C20.475 22.1061 20.338 22.4021 20.2996 22.5336C20.2558 22.6597 19.9982 23.131 19.9598 23.2132C19.916 23.2954 19.7515 23.8599 19.7077 23.9476C19.6639 24.0353 19.4994 24.2819 19.4994 24.2819L19.4172 24.6436C19.4172 24.6436 19.1816 24.9834 19.1816 25.0437C19.1816 25.104 19.0117 25.6795 18.9295 25.8055C18.8473 25.9316 18.4472 26.8359 18.3595 27.1537C18.2773 27.4716 18.1293 27.932 18.0855 28.0416C18.0416 28.1457 17.8114 28.5239 17.7676 28.6499C17.7237 28.776 17.5374 29.4117 17.4716 29.5378C17.4113 29.6638 17.2414 30.0201 17.2414 30.1516C17.2414 30.2831 17.1154 30.5517 17.0113 30.7819C16.9016 31.0121 16.7811 31.4176 16.7153 31.5656C16.6495 31.7136 16.5673 31.8122 16.5454 31.8999C16.5235 31.9821 16.5016 32.2178 16.4851 32.2835C16.4632 32.3438 16.4194 32.4534 16.4194 32.4534C16.3152 32.5028 10.6428 34.9416 9.84268 35.3198C9.03704 35.7034 3.28244 38.4273 2.92073 38.5972C2.56449 38.7671 2.0822 39.1343 1.73692 38.8986C1.28204 38.5917 0.849073 37.9395 0.553122 37.364C0.311977 36.8872 0.0489104 36.0871 0.00506584 35.5116C-0.0442592 34.7827 0.257172 34.6512 1.32588 34.0319C1.84654 33.7304 5.98984 31.5437 7.32162 30.8586C7.69978 30.6668 10.4236 29.2309 10.4236 29.2309" fill="#E30613"/>
</svg>
