<svg width="24" height="24" viewBox="0 0 24 24" fill="none" xmlns="http://www.w3.org/2000/svg">
<rect width="24" height="24" rx="12" fill="#FE5D10"/>
<rect x="2.5" y="2.5" width="19" height="19" rx="9.5" stroke="white"/>
<path d="M11.112 11.564H11.484C11.692 11.564 11.892 11.552 12.084 11.528C12.284 11.504 12.46 11.452 12.612 11.372C12.772 11.292 12.9 11.176 12.996 11.024C13.092 10.872 13.14 10.668 13.14 10.412C13.14 10.084 13.028 9.816 12.804 9.608C12.58 9.4 12.288 9.296 11.928 9.296C11.64 9.296 11.38 9.38 11.148 9.548C10.924 9.708 10.76 9.936 10.656 10.232L9.132 9.824C9.228 9.512 9.364 9.24 9.54 9.008C9.716 8.776 9.924 8.588 10.164 8.444C10.404 8.292 10.668 8.18 10.956 8.108C11.244 8.036 11.544 8 11.856 8C12.224 8 12.572 8.048 12.9 8.144C13.228 8.24 13.516 8.384 13.764 8.576C14.012 8.76 14.208 8.996 14.352 9.284C14.504 9.564 14.58 9.892 14.58 10.268C14.58 10.724 14.452 11.132 14.196 11.492C13.94 11.844 13.584 12.076 13.128 12.188V12.212C13.672 12.292 14.084 12.524 14.364 12.908C14.644 13.292 14.784 13.748 14.784 14.276C14.784 14.684 14.704 15.044 14.544 15.356C14.392 15.668 14.184 15.932 13.92 16.148C13.656 16.356 13.348 16.516 12.996 16.628C12.652 16.732 12.292 16.784 11.916 16.784C11.564 16.784 11.232 16.744 10.92 16.664C10.608 16.592 10.324 16.476 10.068 16.316C9.82 16.156 9.604 15.952 9.42 15.704C9.236 15.448 9.096 15.144 9 14.792L10.536 14.384C10.624 14.736 10.78 15.008 11.004 15.2C11.228 15.392 11.532 15.488 11.916 15.488C12.108 15.488 12.288 15.456 12.456 15.392C12.632 15.328 12.784 15.24 12.912 15.128C13.048 15.008 13.152 14.868 13.224 14.708C13.304 14.54 13.344 14.356 13.344 14.156C13.344 13.884 13.284 13.664 13.164 13.496C13.052 13.32 12.904 13.188 12.72 13.1C12.544 13.004 12.344 12.94 12.12 12.908C11.896 12.876 11.676 12.86 11.46 12.86H11.112V11.564Z" fill="white"/>
</svg>
