<svg width="86" height="24" viewBox="0 0 86 24" fill="none" xmlns="http://www.w3.org/2000/svg">
<path d="M58.5756 0.269531H49.7676V10.5491H53.865V4.43232H58.5756C61.1121 4.43232 63.1747 6.52787 63.1747 9.10483C63.1747 11.6818 61.1121 13.7773 58.5756 13.7773H49.7676V23.8162H53.865V18.1667H58.5756C63.4395 18.1667 67.3836 14.1596 67.3836 9.21811C67.3836 4.27657 63.4395 0.269531 58.5756 0.269531Z" fill="white"/>
<path d="M34.2709 5.06948L39.3299 15.4764H29.0864L26.9541 19.9083H41.4343L43.5109 23.8162H48.1797L36.5983 0.212891L34.2709 5.06948Z" fill="white"/>
<path d="M12.6824 13.8623L0 0.22705V6.52787L6.84292 14.0039L9.71389 17.1047L10.0484 17.4587L10.3271 17.7702L12.6685 20.3047L20.9469 11.3561V23.8162H25.3509V0.212891L14.4802 11.9225L12.6824 13.8623Z" fill="white"/>
<path d="M0 23.8023H4.404V16.2414L0 11.4414V23.8023Z" fill="white"/>
<path d="M80.4986 10.7334L77.6695 13.8201C79.7182 14.6696 80.5683 15.4625 80.6101 17.0909C80.6101 19.0023 78.9656 20.4607 76.8472 20.4607C75.2027 20.4607 72.9589 19.5404 72.7916 16.7935H68.4434C68.6524 21.9616 73.1818 24.0005 76.8193 24.0005C81.3906 24.0005 85.1117 20.9988 85.0141 16.5811C84.9305 13.1121 82.9097 11.6537 80.5126 10.7334H80.4986Z" fill="white"/>
<path d="M73.3364 6.45657C73.2945 4.9557 74.4792 3.53978 76.6394 3.53978C78.8832 3.49731 79.9842 4.82827 79.9842 6.584H84.3324C83.9979 1.54335 79.8448 0 76.6812 0C72.5001 0 68.9463 2.59112 68.9463 6.88134C68.9881 10.1238 71.4131 11.653 74.4513 12.6441L77.1829 9.65653C74.9948 9.00521 73.42 8.14151 73.3364 6.47073V6.45657Z" fill="white"/>
</svg>
