<svg width="132" height="40" viewBox="0 0 132 40" fill="none" xmlns="http://www.w3.org/2000/svg">
<path d="M130.872 31.6602H32.2939V31.8793H130.872V31.6602Z" fill="#E30613"/>
<path d="M83.0001 25.2354L82.1494 28.5754H82.139L81.3405 25.2354H79.7435L78.4336 30.3654H79.6183L80.4533 27.088H80.4637L81.3039 30.3654H82.88L84.19 25.2354H83.0001Z" fill="white"/>
<path d="M75.74 27.8082L76.6429 26.3365H76.6533L76.742 27.8082H75.7348H75.74ZM76.1471 25.2354C75.0355 26.9523 73.9395 28.6902 72.7705 30.3654H74.2526L75.1398 28.8833H76.7264L76.8151 30.3654H78.2503C78.078 28.6589 77.8745 26.9158 77.7701 25.2354H76.1471Z" fill="white"/>
<path d="M85.8651 26.6133C85.9382 26.3419 86.3296 26.248 86.5383 26.2428C86.935 26.2323 87.1698 26.3419 87.4307 26.5037C87.4307 26.5037 87.6865 25.4913 87.6969 25.4391C87.2742 25.2042 86.8149 25.1416 86.4757 25.1416C85.2754 25.1416 84.6491 25.867 84.5291 26.4724C84.2995 27.6675 85.7242 28.3303 85.5728 28.8783C85.4633 29.2853 85.0718 29.3114 84.8422 29.3114C84.4665 29.3114 84.1064 29.1914 83.788 29.0087L83.501 30.2039C83.882 30.3343 84.4299 30.4544 84.8735 30.4544C86.2774 30.4544 86.721 29.8229 86.8723 29.1236C87.1228 27.9284 85.6981 27.2761 85.8651 26.6133Z" fill="white"/>
<path d="M72.1551 26.613C72.223 26.3416 72.6144 26.2477 72.8231 26.2424C73.225 26.232 73.4598 26.3416 73.7208 26.5034C73.7208 26.5034 74.0496 25.5275 74.0548 25.4805C73.6112 25.1935 73.105 25.1465 72.7657 25.1465C71.5602 25.1465 70.9339 25.8719 70.8191 26.4773C70.5947 27.6724 72.0142 28.3352 71.8577 28.8832C71.7429 29.2902 71.3514 29.3163 71.1323 29.3163C70.7565 29.3163 70.3964 29.1963 70.0781 29.0136L69.791 30.2087C70.1668 30.3392 70.72 30.4592 71.1584 30.4592C72.5622 30.4592 73.011 29.8278 73.1571 29.1284C73.4129 27.9333 71.9829 27.2966 72.1551 26.6182" fill="white"/>
<path d="M107.147 28.5653H107.142L106.343 25.2305H104.746L103.437 30.3553H104.626L105.461 27.0779H105.472L106.302 30.3553H107.883L109.188 25.2305H108.003L107.147 28.5653Z" fill="white"/>
<path d="M92.081 26.3264H94.0328L94.3146 25.2305H91.0163L89.7012 30.3553H91.0581L91.5747 28.3252H93.2134L93.4848 27.2293H91.8565L92.081 26.3264Z" fill="white"/>
<path d="M113.483 25.2305H109.668L109.386 26.3264H110.623L109.589 30.3553H110.941L111.969 26.3264H113.201L113.483 25.2305Z" fill="white"/>
<path d="M113.957 25.2305L112.647 30.3553H113.999L115.309 25.2305H113.957Z" fill="white"/>
<path d="M118.362 28.3252L118.649 27.2241H116.953L117.183 26.3264H119.322L119.604 25.2305H116.113L114.803 30.3553H118.294L118.576 29.2542H116.436L116.676 28.3252H118.362Z" fill="white"/>
<path d="M127.02 28.3252L127.302 27.2241H125.574L125.804 26.3264H127.944L128.22 25.2305H124.734L123.419 30.3553H126.91L127.192 29.2542H125.058L125.292 28.3252H127.02Z" fill="white"/>
<path d="M102.231 27.7983C102.011 28.6176 101.385 29.3378 100.618 29.3378C99.7987 29.3378 99.5899 28.602 99.7882 27.8087C99.9866 27.0155 100.581 26.2692 101.396 26.2692C102.21 26.2692 102.419 26.9737 102.231 27.7983ZM101.683 25.1523C100.159 25.1523 98.8749 26.1074 98.4418 27.7983C98.0086 29.5048 98.8019 30.4599 100.336 30.4599C101.771 30.4599 103.076 29.6144 103.556 27.9496C104.052 26.1439 103.217 25.1523 101.688 25.1523" fill="white"/>
<path d="M129.833 26.6081C129.906 26.3419 130.297 26.2428 130.506 26.2376C130.903 26.2271 131.143 26.3367 131.393 26.4985C131.393 26.4985 131.654 25.486 131.659 25.4339C131.242 25.1938 130.777 25.1416 130.438 25.1416C129.238 25.1416 128.606 25.8618 128.497 26.4672C128.267 27.6623 129.692 28.3251 129.535 28.8731C129.421 29.2853 129.029 29.3062 128.81 29.3062C128.429 29.3062 128.069 29.181 127.756 29.0035L127.469 30.1934C127.85 30.3291 128.403 30.4439 128.836 30.4439C130.24 30.4439 130.689 29.8124 130.835 29.1131C131.091 27.9128 129.645 27.2552 129.833 26.6029" fill="white"/>
<path d="M97.0016 28.1008C97.6853 27.9756 98.2176 27.3702 98.3637 26.7909C98.6195 25.7784 98.3272 25.2305 97.1895 25.2305H94.8985L93.5938 30.3553H94.8828L95.9161 26.3055H96.5841C96.7772 26.3055 97.1947 26.3055 97.059 26.8483C96.9547 27.2554 96.6415 27.5215 96.0466 27.5111H95.5665L96.0414 30.3501H97.4974C97.4974 30.3501 97.0225 28.2052 97.0069 28.0956" fill="white"/>
<path d="M122.391 28.1008C123.075 27.9756 123.602 27.365 123.753 26.7909C124.014 25.7784 123.712 25.2305 122.579 25.2305H120.288L118.983 30.3553H120.278L121.311 26.3055H121.974C122.167 26.3055 122.584 26.3055 122.443 26.8535C122.339 27.2554 122.031 27.5267 121.436 27.5163H120.956L121.426 30.3553H122.877C122.877 30.3553 122.407 28.2104 122.391 28.1008Z" fill="white"/>
<path d="M51.468 30.3553L51.7498 29.2594H49.6101L49.8501 28.3304H51.5932L51.875 27.2345H50.1319L50.3616 26.3316H52.5013L52.7779 25.2357L49.2865 25.2305L47.9766 30.3553H51.468Z" fill="white"/>
<path d="M42.423 30.355L42.7048 29.2591H40.5651L40.8 28.3301H42.5274L42.804 27.2342H41.0818L41.3114 26.3313H43.4511L43.733 25.2354H40.2416L38.9316 30.355H42.423Z" fill="white"/>
<path d="M54.3951 30.4394C54.6352 30.4394 55.3136 30.3611 55.6946 30.2932L56.0234 29.1086C55.6268 29.213 55.2145 29.3173 54.6822 29.3173C53.8524 29.3173 53.6436 28.5815 53.8472 27.7882C54.0246 27.1045 54.6456 26.2539 55.6998 26.2539C56.0495 26.2539 56.3678 26.3426 56.6757 26.4574L56.968 25.3093C56.6549 25.1892 56.1382 25.1318 55.7625 25.1318C54.2177 25.1318 52.9234 26.0817 52.4798 27.783C52.0414 29.4895 52.8504 30.4394 54.3951 30.4394Z" fill="white"/>
<path d="M57.7202 30.3553L59.0301 25.2305H57.6732L56.3633 30.3553H57.7202Z" fill="white"/>
<path d="M34.9765 26.6914H34.9922L34.9191 30.355L36.0725 30.3602L37.899 26.6862H37.9147L36.9753 30.355H38.1234L39.4282 25.2354H37.6329L36.0359 28.4554H36.0255L36.109 25.2354H34.2093L32.8994 30.355H34.0423L34.9765 26.6914Z" fill="white"/>
<path d="M59.7081 30.3553L60.5431 27.0884H60.5588L61.3886 30.3553H62.9647L64.2746 25.2357H63.0899L62.2392 28.5653H62.2288L61.4303 25.2357L59.8386 25.2305L58.5234 30.3553H59.7081Z" fill="white"/>
<path d="M46.7707 27.7926C46.5776 28.5441 46.0452 29.2591 45.2937 29.2591H44.7092L45.4555 26.3313H46.1287C46.8489 26.3313 47.0107 26.8427 46.7654 27.7926M48.1223 27.7926C48.6755 25.6268 47.5013 25.2354 46.8646 25.2354H44.4326L43.1279 30.3602H45.2729C46.7498 30.3602 47.7309 29.2852 48.1171 27.7926" fill="white"/>
<path d="M65.9598 26.613C66.0225 26.3416 66.4191 26.2477 66.6278 26.2424C67.0245 26.2372 67.2593 26.3416 67.5203 26.5034C67.5203 26.5034 67.776 25.4909 67.7864 25.4387C67.3689 25.1987 66.9044 25.1465 66.5704 25.1465C65.3597 25.1465 64.7386 25.8667 64.6186 26.4721C64.3942 27.6672 65.8137 28.33 65.6624 28.8779C65.5475 29.2902 65.1561 29.3111 64.9317 29.3111C64.556 29.3111 64.1959 29.1911 63.8827 29.0084L63.5957 30.2035C63.9715 30.334 64.5299 30.454 64.9682 30.454C66.3721 30.454 66.8157 29.8225 66.9671 29.1232C67.2228 27.9281 65.7876 27.2914 65.965 26.613" fill="white"/>
<path d="M13.8293 33.1946C14.205 32.9754 15.0505 32.5214 15.1444 32.464C15.3062 32.3701 15.4054 32.3805 15.4054 32.4327C15.4263 32.6258 15.421 33.0224 15.6663 33.1059C15.7394 33.1268 15.9168 33.0433 15.9534 33.0902C16.0421 33.2207 16.0473 33.1998 16.0682 33.2364C16.0995 33.2833 16.2195 33.2572 16.2456 33.2833C16.3134 33.346 16.2456 33.4243 16.2821 33.466C16.3395 33.5338 16.4596 33.4242 16.5222 33.4399C16.6318 33.4608 16.6579 33.586 16.637 33.6643C16.6109 33.7948 16.6892 33.8939 16.898 33.7217C17.0128 33.6278 17.018 33.6748 17.1119 33.6278C17.1693 33.6017 17.2633 33.6017 17.2998 33.6434C17.3416 33.6852 17.4042 33.753 17.4616 33.7739C17.5503 33.8052 17.6442 33.7739 17.7017 33.7948C17.7799 33.8261 17.7852 33.9461 17.853 33.9618C17.9208 33.9722 17.9939 33.8365 18.0409 33.8783C18.1661 33.9931 17.9365 34.2019 18.0983 34.2488C18.187 34.2749 18.2183 34.2019 18.2914 34.1914C18.3592 34.181 18.401 34.0975 18.4636 34.0975C18.5262 34.0975 18.568 34.1653 18.641 34.1236C18.7037 34.0923 18.7559 34.0662 18.808 34.0296C18.8968 33.9774 18.9855 34.0035 19.0325 33.967C19.0951 33.92 19.0481 33.7843 19.2255 33.8209C19.4082 33.8522 19.1995 34.0192 19.2725 34.0923C19.3351 34.1444 19.4865 34.0923 19.5387 34.0766C19.6326 34.0453 19.7266 33.9253 19.7579 33.8418C19.7944 33.7374 19.9457 33.4086 20.0084 33.3199C20.071 33.2259 20.2223 32.8763 20.3006 32.7562C20.3789 32.6362 20.7025 32.1248 20.7286 32.0413C20.7599 31.9578 20.8747 31.8534 20.906 31.7908C20.9321 31.7281 20.9999 31.5298 21.0834 31.368C21.1617 31.2063 21.3809 30.8879 21.407 30.8253C21.4279 30.7679 21.6001 30.3712 21.6575 30.2512C21.7149 30.1312 21.9289 29.8598 21.9759 29.7241C22.0228 29.5936 22.169 29.317 22.169 29.317L22.3203 29.0665C22.3203 29.0665 22.3673 28.9569 22.4403 28.8056C22.5134 28.6543 22.7222 28.3359 22.7848 28.2211C22.8422 28.1115 23.0144 27.8819 23.0144 27.8819L23.1449 27.5896L23.2388 27.3652C23.2388 27.3652 23.3223 27.1043 23.3588 27.0364C23.4006 26.9634 23.5363 26.7964 23.578 26.7024C23.6146 26.6137 23.7398 26.2118 23.7972 26.0918C23.8546 25.9718 24.1469 25.4499 24.1782 25.3507C24.2043 25.2516 24.5122 24.7088 24.5383 24.5992C24.5696 24.4844 24.5801 24.3383 24.6218 24.2652C24.6636 24.1974 24.7836 24.0147 24.8045 23.9625C24.8201 23.9104 25.0237 23.4302 25.055 23.3624C25.0863 23.2945 25.1019 23.1641 25.1854 23.1641C25.2637 23.1641 25.3211 23.2476 25.3733 23.3258C25.4359 23.4093 25.556 23.3989 25.6238 23.4668C25.6917 23.5398 25.9265 23.7903 25.9369 23.8269C25.9474 23.8686 26.0726 23.879 26.1092 23.9156C26.1353 23.9573 26.1614 24.0565 26.1979 24.0774C26.2344 24.0982 26.438 24.2391 26.4797 24.2965C26.5215 24.3592 26.5684 24.4792 26.6206 24.5157C26.6728 24.5523 26.9024 24.6984 26.9337 24.7558C26.9598 24.8132 27.2938 25.2203 27.3356 25.2881C27.3721 25.356 27.4034 25.476 27.4347 25.5282C27.4608 25.5804 27.5861 25.6482 27.5965 25.7004C27.607 25.7474 27.6174 25.93 27.6487 25.9822C27.6748 26.0344 27.8157 26.0918 27.8366 26.144C27.8575 26.191 27.9201 26.3841 27.9462 26.4154C27.9723 26.4415 28.0349 26.4884 28.0558 26.525C28.0767 26.5667 28.0975 26.7859 28.1236 26.8225C28.1549 26.8642 28.2541 27.0364 28.2854 27.1043C28.3167 27.1773 28.4211 27.3026 28.4368 27.3548C28.4576 27.407 28.4681 27.6053 28.4837 27.6731C28.5046 27.7462 28.5933 27.8923 28.6038 27.9341C28.609 27.9706 28.6351 28.0958 28.6351 28.0958L28.7134 28.2889C28.7134 28.2889 28.8021 28.4768 28.8021 28.5499C28.8021 28.6229 28.8229 28.7012 28.8334 28.7482C28.8438 28.7952 28.9221 28.9256 28.9221 28.9674C28.9221 29.0091 29.0317 29.2388 29.0317 29.2388C29.0317 29.2388 29.0108 29.4371 29.0317 29.4893C29.0526 29.5362 29.1413 29.6771 29.1413 29.7293C29.1413 29.7815 29.1152 29.9068 29.1152 29.9068L29.1622 29.9903C29.1622 29.9903 29.1361 30.0999 29.1622 30.1416C29.1778 30.1834 29.1413 30.2721 29.1622 30.3034C29.1935 30.3295 29.277 30.5435 29.277 30.5435C29.2196 30.6165 25.0237 32.5527 23.2284 33.3877C20.6451 34.5933 15.2645 37.2914 14.6904 37.6254C14.1163 37.9542 13.7615 38.1473 13.6205 38.0742C13.3022 37.9124 12.7803 37.4532 12.4307 36.4668C12.128 35.637 12.128 34.9429 12.1541 34.5985C12.1749 34.3375 12.1541 34.134 12.5559 33.9044C12.6968 33.8261 13.4327 33.4086 13.8084 33.1894" fill="#E30613"/>
<path d="M6.38225 18.357C6.40312 18.3988 6.49184 18.3936 6.55447 18.404C6.591 18.4144 6.65884 18.4771 6.69538 18.4823C6.73713 18.4823 6.79453 18.4666 6.82063 18.4823C6.88325 18.5292 6.87282 18.5971 6.91457 18.6545C6.95632 18.7119 6.97719 18.8163 7.03982 18.8372C7.09722 18.858 7.17551 18.8476 7.2016 18.905C7.22248 18.9624 7.17551 19.0563 7.22248 19.1346C7.33207 19.3329 7.23291 19.8861 7.33729 19.9279C7.43645 19.9644 7.73914 19.8705 7.84352 19.7765C7.94789 19.6826 8.10446 19.5104 8.18274 19.4791C8.33408 19.4112 8.63678 19.2442 8.7829 19.2181C8.92903 19.1868 9.00209 18.952 9.143 18.9363C9.28391 18.9259 9.23172 18.8111 9.3361 18.7745C9.43525 18.7328 9.62313 18.6284 9.68576 18.691C9.71185 18.7171 9.76926 18.7954 9.8632 18.8319C9.96757 18.8737 10.0876 18.8163 10.1085 18.9415C10.1346 19.1242 10.406 18.9624 10.406 18.9624C10.406 18.9624 10.74 18.7484 10.8809 18.6858C11.0218 18.6232 11.3975 18.4301 11.3975 18.4301C11.3975 18.4301 11.6898 18.2787 11.815 18.2213C16.3397 16.0503 19.9094 14.85 23.1868 13.5818C28.2856 11.6039 37.1159 9.33892 38.7911 8.92141C38.9685 8.87966 39.3599 8.81704 39.4069 8.78572C39.4539 8.75963 39.5374 8.73875 39.5739 8.57697C39.6157 8.41519 39.4904 8.196 39.4904 8.11771C39.4904 8.03943 39.6731 7.71587 39.6939 7.57496C39.7096 7.43405 39.5739 7.41317 39.5739 7.41317C39.5739 7.41317 39.5896 7.24095 39.553 7.11048C39.5165 6.98523 39.2921 6.87042 39.2503 6.77126C39.2138 6.6721 39.2503 6.36941 39.2138 6.27025C39.1773 6.1711 39.052 6.0876 39.052 6.0876C39.052 6.0876 39.0833 6.03541 39.052 5.94669C39.0259 5.85797 38.932 5.86319 38.932 5.86319C38.932 5.86319 38.9685 5.67009 38.9529 5.60225C38.9372 5.5344 38.8328 5.48221 38.8328 5.48221C38.8328 5.48221 38.7128 5.40393 38.7128 5.32565C38.7128 5.24737 38.6919 5.18474 38.6293 5.14299C38.5667 5.10124 38.3892 5.10124 38.3266 5.08558C38.264 5.06471 38.1283 5.02818 38.0239 5.04383C37.9248 5.06471 37.883 5.14299 37.6012 5.2004C37.3194 5.26302 37.1994 5.2004 37.0793 5.22127C36.9593 5.24215 36.8236 5.32565 36.6775 5.36218C35.3101 5.71706 29.0423 7.53843 24.4237 9.27629C20.1286 10.8889 15.0089 13.2217 11.8881 14.8395C9.52919 16.0712 8.26624 16.7809 7.74436 17.1045C7.47298 17.2715 7.18073 17.4646 7.13376 17.5429C7.06069 17.6681 6.98241 17.8508 6.82585 17.8717C6.63797 17.903 6.66406 18.0021 6.60666 18.0178C6.53359 18.0335 6.45531 18.1117 6.39269 18.1692C6.33528 18.2266 6.35615 18.3048 6.37703 18.3518" fill="#E30613"/>
<path d="M25.8956 15.5546C25.6868 15.4293 25.7547 15.3145 26 15.2101C27.4926 14.5734 31.2658 13.227 33.4316 12.5381C35.279 11.9536 40.3778 10.2888 41.7973 9.88171C42.1418 9.78256 42.2775 9.78777 42.4288 9.94434C42.815 10.3566 43.1908 10.9046 43.5456 11.5883C43.8692 12.2197 44.151 13.133 44.2606 13.7071C44.3441 14.1298 44.1458 14.2029 43.9214 14.302C42.3453 15.0066 38.4469 16.7131 36.829 17.4803C35.2425 18.2266 32.3513 19.62 31.3701 20.1158C30.9526 20.3246 31.0205 20.4081 30.7439 20.0897C30.6552 19.9958 30.5195 19.7661 30.4829 19.7087C30.4412 19.6461 29.9037 19.166 29.841 19.1086C29.7836 19.046 29.4809 18.6859 29.3974 18.6284C29.3191 18.5658 29.0582 18.2057 28.9799 18.164C28.8964 18.1222 28.7607 18.0596 28.7033 18.0022C28.6407 17.9396 28.5363 17.8143 28.4789 17.7778C28.4215 17.736 28.2806 17.5951 28.2806 17.5951L28.0927 17.4281L27.9309 17.2455C27.9309 17.2455 27.79 17.068 27.6909 17.0263C27.5917 16.9845 27.456 16.8227 27.4091 16.7601C27.3725 16.7027 27.0542 16.3009 26.8872 16.1965C26.7254 16.0973 26.3392 15.8468 26.2609 15.7842C26.1826 15.7268 26.073 15.6642 25.9008 15.5598" fill="#E30613"/>
<path d="M31.6356 21.0553C31.4843 20.8987 31.6774 20.883 31.8548 20.81C32.5176 20.5542 36.4474 19.3226 39.8709 18.4198C43.284 17.5273 48.2158 16.4992 48.9516 16.3531C49.2596 16.2905 49.3796 16.3374 49.5361 16.5879C49.7188 16.8802 50.0946 17.8509 50.2407 18.6337C50.4233 19.6305 50.2459 20.643 50.1624 20.883C50.0893 21.0813 49.8127 21.097 49.1447 21.2797C48.7429 21.3893 47.0416 21.8276 46.3422 22.0312C45.5385 22.266 43.4145 22.8766 42.6264 23.148C41.6557 23.4768 40.3771 23.8995 40.3771 23.8995L33.6083 24.0143C33.6083 24.0143 33.5092 23.5603 33.4518 23.5185C33.3891 23.4768 33.29 23.2576 33.2274 23.195C33.1647 23.1323 33.0864 22.9131 33.0864 22.9131C33.0864 22.9131 33.029 22.6731 32.9664 22.6313C32.909 22.5896 32.7629 22.2451 32.7003 22.2034C32.6376 22.1616 32.5019 21.9894 32.4445 21.9059C32.3819 21.8224 32.3454 21.7233 32.2462 21.645C32.1471 21.5667 32.0218 21.4049 31.9435 21.3632C31.86 21.3214 31.7922 21.2014 31.6356 21.0448" fill="#E30613"/>
<path d="M23.4534 8.0034C23.2603 8.00862 23.0881 8.0034 23.0411 7.95121C23.0202 7.9199 23.0411 7.86249 22.9941 7.82596C22.9472 7.78421 22.8532 7.79987 22.8219 7.82596C22.7958 7.84684 22.801 7.84684 22.7332 7.86771C22.6653 7.88859 22.4096 7.79987 22.3157 7.83118C22.227 7.86249 22.0339 7.86771 21.9712 7.8364C21.9086 7.80509 21.8982 7.62765 21.7834 7.58068C21.726 7.55458 21.5381 7.45021 21.4807 7.34583C21.418 7.24146 21.2563 7.07967 21.225 7.00661C21.1884 6.93355 21.1415 6.81351 21.1154 6.75089C21.0945 6.68826 21.0319 6.56301 20.9953 6.51604C20.9588 6.46907 20.9066 6.43254 20.8701 6.39079C20.8283 6.34382 20.797 6.20291 20.7553 6.14029C20.7344 6.10897 20.6874 6.04635 20.6665 5.99416C20.6404 5.94719 20.6404 5.895 20.6248 5.83759C20.6039 5.78019 20.5308 5.70191 20.5204 5.64972C20.5048 5.59753 20.4839 5.24265 20.4891 4.97127C20.4943 4.69989 20.4891 4.45983 20.5204 4.34501C20.5465 4.23542 20.6039 4.13104 20.6248 4.02145C20.6457 3.91185 20.7918 3.54132 20.8283 3.36388C20.8649 3.19166 20.9536 2.86809 21.0005 2.75328C21.0423 2.63846 21.1623 2.34099 21.225 2.24183C21.2876 2.14267 21.512 1.80867 21.6007 1.69386C21.6894 1.57904 22.1069 1.16676 22.2061 1.09369C22.3052 1.02063 22.5297 0.853627 22.6027 0.801439C22.6445 0.770126 22.9367 0.566592 23.0307 0.509185C23.0985 0.467435 23.2081 0.467435 23.2081 0.467435L23.3073 0.368277C23.3073 0.368277 23.3594 0.305652 23.4116 0.26912C23.4638 0.232588 23.5943 0.232588 23.5943 0.232588C23.5943 0.232588 23.7404 0.117774 23.8918 0.149087C23.9596 0.159525 24.0014 0.0394921 24.064 0.0290545C24.1266 0.0133981 24.3406 -0.0179148 24.3719 0.0133981C24.4032 0.044711 24.4397 0.0812427 24.565 0.107337C24.685 0.128212 24.7894 0.102118 24.8312 0.112556C24.8938 0.128212 24.9616 0.206494 25.0034 0.222151C25.0503 0.237807 25.6035 0.744032 25.6766 0.869283C25.7027 0.911034 25.7131 0.994535 25.7236 1.02063C25.7444 1.06238 25.8384 1.12501 25.8749 1.26069C25.901 1.37029 26.0106 1.4016 26.0263 1.56339C26.0263 1.65732 26.2089 1.73561 26.2611 1.9287C26.2768 1.97567 26.2976 2.16877 26.3133 2.19486C26.3237 2.22618 26.3655 2.23661 26.3864 2.30446C26.4072 2.3723 26.4281 2.47146 26.4177 2.55496C26.4072 2.63846 26.5586 2.94637 26.5481 3.13425C26.5325 3.32213 26.496 3.52566 26.449 3.66657C26.402 3.80748 26.4333 4.07885 26.402 4.19367C26.3759 4.30326 26.2924 4.57464 26.2715 4.65814C26.2559 4.74164 26.021 5.31049 25.9845 5.37312C25.948 5.43575 25.8123 5.69147 25.7549 5.76975C25.6975 5.84281 25.2278 6.48995 25.1495 6.57345C25.0712 6.65695 24.8625 6.81351 24.8207 6.87614C24.7633 6.95964 24.7216 7.0588 24.6589 7.15274C24.5702 7.29886 24.4397 7.18927 24.3823 7.29364C24.2988 7.43977 24.1423 7.4763 24.111 7.5598C24.064 7.69027 23.9648 7.79987 23.9179 7.84162C23.803 7.93034 23.5682 8.0034 23.4534 8.00862" fill="#E30613"/>
<path d="M9.92057 27.8451C9.92057 27.8451 7.93742 28.5131 7.14938 28.7949C6.39787 29.0611 5.57852 29.3533 5.02532 29.5777C4.35732 29.8491 3.17264 30.3345 2.88561 30.4336C2.44723 30.5902 2.26457 30.4962 2.13932 30.2353C2.01929 29.9744 1.73225 29.4264 1.57569 28.7897C1.4139 28.1478 1.3565 27.6102 1.34606 27.4119C1.33562 27.2188 1.50262 26.8639 1.74269 26.7283C1.98275 26.5978 2.56204 26.2429 3.0213 25.9768C3.90328 25.4653 6.94585 23.8475 8.75678 22.9081C10.6721 21.9165 13.7042 20.45 15.3325 19.6411C16.9608 18.8374 19.6276 17.5745 19.9511 17.4335C20.2695 17.2926 20.6087 17.1309 20.7705 17.1309C20.9323 17.1309 20.8696 17.2091 20.8696 17.2718C20.8696 17.3344 20.8175 17.3553 20.7966 17.4753C20.7809 17.5953 20.7914 17.731 20.7496 17.8511C20.7079 17.9711 20.6035 18.0859 20.5826 18.1642C20.5617 18.2425 20.5461 18.5295 20.4678 18.6287C20.3895 18.733 20.0973 19.2862 20.0399 19.5472C19.9824 19.8081 19.8468 20.2361 19.7894 20.3352C19.7267 20.4344 19.5388 20.8101 19.518 20.9302C19.4971 21.0502 19.3666 21.332 19.3301 21.4573C19.2883 21.5773 19.0431 22.0261 19.0065 22.1044C18.9648 22.1827 18.8082 22.7202 18.7665 22.8037C18.7247 22.8872 18.5681 23.1221 18.5681 23.1221L18.4899 23.4665C18.4899 23.4665 18.2655 23.7901 18.2655 23.8475C18.2655 23.9049 18.1037 24.4529 18.0254 24.5729C17.9471 24.6929 17.5661 25.554 17.4826 25.8567C17.4044 26.1594 17.2634 26.5978 17.2217 26.7022C17.1799 26.8013 16.9608 27.1614 16.919 27.2815C16.8773 27.4015 16.6998 28.0069 16.6372 28.1269C16.5798 28.2469 16.418 28.5862 16.418 28.7114C16.418 28.8367 16.298 29.0924 16.1988 29.3116C16.0944 29.5308 15.9796 29.917 15.917 30.0579C15.8544 30.1988 15.7761 30.2927 15.7552 30.3762C15.7343 30.4545 15.7135 30.6789 15.6978 30.7415C15.6769 30.7989 15.6352 30.9033 15.6352 30.9033C15.536 30.9503 10.1345 33.2727 9.3726 33.6328C8.60543 33.9981 3.12567 36.5918 2.78123 36.7536C2.44201 36.9154 1.98275 37.265 1.65397 37.0406C1.22081 36.7484 0.808521 36.1273 0.526705 35.5794C0.297078 35.1253 0.0465744 34.3634 0.0048239 33.8154C-0.0421454 33.1213 0.244889 32.9961 1.26256 32.4063C1.75835 32.1193 5.70377 30.037 6.97194 29.3846C7.33204 29.202 9.92579 27.8346 9.92579 27.8346" fill="#E30613"/>
<path d="M92.7584 36.8521C92.9254 36.2311 92.32 35.7405 91.2502 35.7405C90.1803 35.7405 89.314 36.2259 89.147 36.8521C89.0113 37.3688 89.3975 37.7863 90.1438 37.9168L90.0342 38.329C89.4236 38.3395 88.813 38.3499 88.2076 38.3499L88.1137 39.138C89.2722 39.138 91.438 39.0336 92.7741 38.8718C92.8054 38.6317 92.8576 38.3917 92.8889 38.1516C92.2887 38.209 91.699 38.256 91.1249 38.2873L91.2241 37.9115C92.0225 37.7758 92.6227 37.3636 92.7584 36.8573M95.5296 33.6634H94.4389L92.7427 39.9991H93.8335L95.5296 33.6634ZM93.4264 35.6414L93.6143 34.942H89.3244L89.1365 35.6414H93.4264ZM90.5195 34.6707H92.6175L92.8054 33.9713H90.7074L90.5195 34.6707ZM91.6624 36.8573C91.5946 37.1026 91.2397 37.2853 90.8431 37.2853C90.4465 37.2853 90.1907 37.1026 90.2586 36.8573C90.3264 36.6016 90.6709 36.4085 91.0779 36.4085C91.485 36.4085 91.7355 36.6016 91.6624 36.8573ZM85.7548 33.6634H84.6849L82.9888 39.9991H84.0586L84.9197 36.7843H85.927L86.1305 36.0171H85.1233L85.7548 33.6634ZM83.3645 37.7289C82.3677 37.1757 82.0181 36.2989 82.373 34.9733L82.5817 34.1853H81.4597L81.2405 35.0047C80.8856 36.3355 80.1184 37.2696 78.6833 37.9168C78.845 38.1516 79.0068 38.3917 79.1634 38.6265C79.894 38.3395 80.9587 37.5253 81.3188 36.8678C81.3709 37.4836 82.0129 38.1777 82.5452 38.4647C82.8166 38.2194 83.0932 37.9794 83.3645 37.7237M71.6326 35.5735C71.7579 35.1143 72.2537 34.8116 72.7599 34.8116C73.2661 34.8116 73.6158 35.1143 73.4905 35.5735C73.3653 36.0328 72.8538 36.3407 72.3476 36.3407C71.8414 36.3407 71.5074 36.0328 71.6326 35.5735ZM74.3725 37.6871C73.8089 37.7341 72.9008 37.7915 71.9092 37.8228C71.1838 37.8437 70.4271 37.8437 69.5816 37.8437L69.4825 38.663C70.1348 38.6683 71.0325 38.6422 71.8414 38.6109C72.6033 38.5795 73.6836 38.496 74.2473 38.4282L74.3673 37.6871H74.3725ZM76.8671 33.6634H75.792L74.0959 39.9991H75.171L76.8671 33.6634ZM70.5837 35.5735C70.3384 36.4972 71.0325 37.0922 72.1545 37.0922C73.2766 37.0922 74.3099 36.4972 74.5604 35.5735C74.8057 34.6654 74.0959 34.0653 72.9687 34.0653C71.8414 34.0653 70.8342 34.6654 70.5889 35.5735M66.8522 37.4732L67.0505 36.7269H60.4696L60.2713 37.4732H66.8522ZM66.4086 36.1841L66.6069 35.4483H62.7815L63.2043 33.8722H62.1135L61.4925 36.1841H66.4138H66.4086ZM65.464 39.8321L65.6623 39.0962H61.743L62.0509 37.9533H60.9602L60.4592 39.8321H65.4692H65.464ZM53.6329 39.8842L53.753 39.4302L54.0504 39.9938C54.4627 39.8895 55.1464 39.5398 55.4908 39.0962C55.5743 39.5346 56.0493 39.879 56.3728 39.9573L57.1139 39.2215C56.4302 39.0492 56.1849 38.5274 56.3676 37.8541L56.5085 37.3218H55.4491L55.3082 37.8541C55.1203 38.5535 54.5358 39.0179 53.8156 39.2162L54.3114 37.374H53.3042L53.1267 38.042H52.5057L52.6779 37.4001H51.6655L50.9974 39.8842H53.6434H53.6329ZM51.488 35.4378C51.2532 36.3146 51.9107 36.92 53.0067 36.92C54.1026 36.92 55.089 36.3198 55.3238 35.4378C55.5639 34.5506 54.8802 33.9609 53.7999 33.9609C52.7197 33.9609 51.7281 34.5506 51.488 35.4378ZM57.0617 37.04L57.9698 33.6582H56.8686L56.5033 35.0307H55.6892L55.4856 35.7875H56.2998L55.9658 37.0452H57.0669L57.0617 37.04ZM52.5318 35.443C52.6518 34.9942 53.085 34.7228 53.5912 34.7228C54.0974 34.7228 54.4001 34.9994 54.2801 35.443C54.16 35.8971 53.7008 36.1737 53.1998 36.1737C52.6988 36.1737 52.4065 35.8919 52.5266 35.443M52.8084 39.1849H52.1873L52.3126 38.71H52.9336L52.8084 39.1849ZM46.17 38.6787C46.0761 39.0336 45.5229 39.2528 44.6253 39.2528C43.7276 39.2528 43.331 39.0336 43.4249 38.6787C43.5189 38.3238 44.0825 38.0994 44.9332 38.0994C45.8308 38.0994 46.264 38.329 46.17 38.6787ZM47.6365 37.2279L48.5916 33.6582H47.4904L47.2242 34.6602H46.1074L45.9143 35.3804H47.0311L46.885 35.9336H45.7108L45.5177 36.6538H46.6919L46.5406 37.2227H47.6417L47.6365 37.2279ZM42.7413 34.0601L42.5377 34.8272H44.7975C44.4426 35.6309 43.0648 36.4398 41.6819 36.6695L41.8958 37.4105C44.0773 36.9304 45.6847 35.7979 46.2066 34.0548H42.7413V34.0601ZM47.2921 38.6787C47.5061 37.875 46.718 37.3479 45.1367 37.3479C43.5554 37.3479 42.5221 37.875 42.3029 38.6787C42.0889 39.4824 42.8717 39.9938 44.427 39.9938C45.9822 39.9938 47.0781 39.4772 47.2921 38.6787ZM32.8203 37.7289L32.622 38.47H36.5413L36.1343 39.9886H37.2198L37.8252 37.7289H35.9046L36.1708 36.7269H38.9159L39.1142 35.9858H38.107C38.4358 35.3856 38.7019 34.5976 38.8794 33.867H33.9841L33.7858 34.608H37.606C37.5068 35.0151 37.2459 35.657 37.0684 35.9858H32.5333L32.335 36.7269H35.0801L34.8139 37.7289H32.8255H32.8203Z" fill="white"/>
</svg>
