<svg width="40" height="40" viewBox="0 0 40 40" fill="none" xmlns="http://www.w3.org/2000/svg">
<rect width="40" height="40" rx="20" fill="black"/>
<g clip-path="url(#clip0_2648_53)">
<path d="M18.7036 14.8141L20.6482 12.8696C21.0738 12.444 21.5791 12.1064 22.1351 11.876C22.6912 11.6457 23.2872 11.5272 23.8891 11.5272C24.491 11.5272 25.087 11.6457 25.6431 11.876C26.1991 12.1064 26.7044 12.444 27.13 12.8696C27.5556 13.2952 27.8932 13.8005 28.1235 14.3565C28.3539 14.9126 28.4724 15.5086 28.4724 16.1105C28.4724 16.7124 28.3539 17.3084 28.1235 17.8645C27.8932 18.4205 27.5556 18.9258 27.13 19.3514L25.1855 21.2959M21.2964 25.185L19.3518 27.1296C18.9262 27.5552 18.421 27.8928 17.8649 28.1231C17.3088 28.3535 16.7128 28.472 16.1109 28.472C14.8953 28.472 13.7296 27.9891 12.87 27.1296C12.0105 26.27 11.5276 25.1042 11.5276 23.8887C11.5276 22.6731 12.0105 21.5073 12.87 20.6478L14.8146 18.7032" stroke="white" stroke-width="1.5" stroke-linecap="round" stroke-linejoin="round"/>
<path d="M17.4073 22.5928L22.5927 17.4073" stroke="white" stroke-width="1.5" stroke-linecap="round" stroke-linejoin="round"/>
</g>
<defs>
<clipPath id="clip0_2648_53">
<rect width="22" height="22" fill="white" transform="translate(4.44365 20) rotate(-45)"/>
</clipPath>
</defs>
</svg>
