<svg width="40" height="40" viewBox="0 0 40 40" fill="none" xmlns="http://www.w3.org/2000/svg">
<rect width="40" height="40" rx="20" fill="black"/>
<path fill-rule="evenodd" clip-rule="evenodd" d="M20 11C14.477 11 10 14.442 10 18.689C10 21.434 11.872 23.845 14.687 25.205C14.534 25.721 13.703 28.518 13.67 28.74C13.67 28.74 13.65 28.905 13.76 28.968C13.87 29.031 13.999 28.981 13.999 28.981C14.313 28.938 17.647 26.655 18.225 26.259C18.801 26.339 19.394 26.38 20 26.38C25.523 26.38 30 22.936 30 18.689C30 14.442 25.523 11 20 11Z" fill="white"/>
<path fill-rule="evenodd" clip-rule="evenodd" d="M27.329 20.8686C27.308 21.0156 27.228 21.1476 27.105 21.2396C27.004 21.3126 26.885 21.3516 26.758 21.3516C26.575 21.3516 26.407 21.2706 26.297 21.1296L24.944 19.3816L24.744 19.5756V20.8046C24.744 21.1146 24.485 21.3666 24.167 21.3666C23.85 21.3666 23.59 21.1146 23.59 20.8046V16.9546C23.59 16.6426 23.85 16.3906 24.167 16.3906C24.485 16.3906 24.744 16.6426 24.744 16.9546V18.1646L26.353 16.5946C26.436 16.5136 26.55 16.4696 26.674 16.4696C26.817 16.4696 26.962 16.5296 27.07 16.6356C27.172 16.7326 27.232 16.8596 27.24 16.9916C27.249 17.1246 27.203 17.2466 27.113 17.3346L25.798 18.6166L27.219 20.4516C27.311 20.5716 27.35 20.7196 27.329 20.8686Z" fill="black"/>
<path fill-rule="evenodd" clip-rule="evenodd" d="M22.812 21.2916H20.962C20.657 21.2916 20.409 21.0596 20.409 20.7746V16.9546C20.409 16.6426 20.673 16.3906 20.998 16.3906C21.322 16.3906 21.587 16.6426 21.587 16.9546V20.2606H22.812C23.118 20.2606 23.366 20.4916 23.366 20.7746C23.366 21.0596 23.118 21.2916 22.812 21.2916Z" fill="black"/>
<path fill-rule="evenodd" clip-rule="evenodd" d="M19.897 21.2896C19.784 21.3406 19.657 21.3666 19.53 21.3666C19.29 21.3666 19.105 21.2696 19.05 21.1176L18.766 20.3896H17.005L16.721 21.1186C16.664 21.2706 16.48 21.3666 16.239 21.3666C16.112 21.3666 15.985 21.3406 15.873 21.2886C15.714 21.2176 15.56 21.0196 15.736 20.4896L17.116 16.9476C17.214 16.6786 17.509 16.3996 17.885 16.3906C18.262 16.3996 18.558 16.6786 18.654 16.9476L20.033 20.4886C20.209 21.0196 20.057 21.2186 19.897 21.2896Z" fill="black"/>
<path fill-rule="evenodd" clip-rule="evenodd" d="M15.049 20.8366C15.049 21.1336 14.79 21.3746 14.473 21.3746C14.153 21.3746 13.894 21.1336 13.894 20.8366V17.4936H12.994C12.683 17.4936 12.43 17.2466 12.43 16.9416C12.43 16.6396 12.683 16.3906 12.994 16.3906H15.948C16.261 16.3906 16.516 16.6396 16.516 16.9416C16.516 17.2466 16.261 17.4936 15.948 17.4936H15.049V20.8366Z" fill="black"/>
<path fill-rule="evenodd" clip-rule="evenodd" d="M17.3085 19.3929H18.4605L17.8845 17.7949L17.3085 19.3929Z" fill="white"/>
</svg>
