<svg width="40" height="40" viewBox="0 0 40 40" fill="none" xmlns="http://www.w3.org/2000/svg">
<rect width="40" height="40" rx="20" fill="#171717"/>
<path fill-rule="evenodd" clip-rule="evenodd" d="M20 11C14.477 11 10 14.442 10 18.689C10 21.434 11.872 23.845 14.687 25.205C14.534 25.721 13.703 28.518 13.67 28.74C13.67 28.74 13.65 28.905 13.76 28.968C13.87 29.031 13.999 28.981 13.999 28.981C14.313 28.938 17.647 26.655 18.225 26.259C18.801 26.339 19.394 26.38 20 26.38C25.523 26.38 30 22.936 30 18.689C30 14.442 25.523 11 20 11Z" fill="white"/>
<path fill-rule="evenodd" clip-rule="evenodd" d="M27.3288 20.8686C27.3078 21.0156 27.2278 21.1476 27.1048 21.2396C27.0038 21.3126 26.8848 21.3516 26.7578 21.3516C26.5748 21.3516 26.4068 21.2706 26.2968 21.1296L24.9438 19.3816L24.7438 19.5756V20.8046C24.7438 21.1146 24.4848 21.3666 24.1668 21.3666C23.8498 21.3666 23.5898 21.1146 23.5898 20.8046V16.9546C23.5898 16.6426 23.8498 16.3906 24.1668 16.3906C24.4848 16.3906 24.7438 16.6426 24.7438 16.9546V18.1646L26.3528 16.5946C26.4358 16.5136 26.5498 16.4696 26.6738 16.4696C26.8168 16.4696 26.9618 16.5296 27.0698 16.6356C27.1718 16.7326 27.2318 16.8596 27.2398 16.9916C27.2488 17.1246 27.2028 17.2466 27.1128 17.3346L25.7978 18.6166L27.2188 20.4516C27.3108 20.5716 27.3498 20.7196 27.3288 20.8686Z" fill="black"/>
<path fill-rule="evenodd" clip-rule="evenodd" d="M22.8122 21.2916H20.9622C20.6572 21.2916 20.4092 21.0596 20.4092 20.7746V16.9546C20.4092 16.6426 20.6732 16.3906 20.9982 16.3906C21.3222 16.3906 21.5872 16.6426 21.5872 16.9546V20.2606H22.8122C23.1182 20.2606 23.3662 20.4916 23.3662 20.7746C23.3662 21.0596 23.1182 21.2916 22.8122 21.2916Z" fill="black"/>
<path fill-rule="evenodd" clip-rule="evenodd" d="M19.897 21.2896C19.784 21.3406 19.657 21.3666 19.53 21.3666C19.29 21.3666 19.105 21.2696 19.05 21.1176L18.766 20.3896H17.005L16.721 21.1186C16.664 21.2706 16.48 21.3666 16.239 21.3666C16.112 21.3666 15.985 21.3406 15.873 21.2886C15.714 21.2176 15.56 21.0196 15.736 20.4896L17.116 16.9476C17.214 16.6786 17.509 16.3996 17.885 16.3906C18.262 16.3996 18.558 16.6786 18.654 16.9476L20.033 20.4886C20.209 21.0196 20.057 21.2186 19.897 21.2896Z" fill="black"/>
<path fill-rule="evenodd" clip-rule="evenodd" d="M15.0492 20.8366C15.0492 21.1336 14.7902 21.3746 14.4732 21.3746C14.1532 21.3746 13.8942 21.1336 13.8942 20.8366V17.4936H12.9942C12.6832 17.4936 12.4302 17.2466 12.4302 16.9416C12.4302 16.6396 12.6832 16.3906 12.9942 16.3906H15.9482C16.2612 16.3906 16.5162 16.6396 16.5162 16.9416C16.5162 17.2466 16.2612 17.4936 15.9482 17.4936H15.0492V20.8366Z" fill="black"/>
<path fill-rule="evenodd" clip-rule="evenodd" d="M17.3086 19.3929H18.4606L17.8846 17.7949L17.3086 19.3929Z" fill="white"/>
</svg>
