<svg width="40" height="40" viewBox="0 0 40 40" fill="none" xmlns="http://www.w3.org/2000/svg">
<rect width="40" height="40" rx="20" fill="#171717"/>
<path d="M28.503 12.28C27.79 12.716 26.997 13.025 26.154 13.195C25.479 12.457 24.521 12 23.461 12C21.422 12 19.766 13.697 19.766 15.787C19.766 16.082 19.802 16.37 19.859 16.65C16.791 16.495 14.068 14.982 12.246 12.693C11.929 13.255 11.749 13.904 11.749 14.597C11.749 15.912 12.404 17.071 13.391 17.75C12.786 17.727 12.217 17.557 11.72 17.278V17.329C11.72 19.16 12.995 20.695 14.681 21.043C14.371 21.131 14.047 21.176 13.708 21.176C13.471 21.176 13.24 21.153 13.017 21.109C13.484 22.615 14.855 23.707 16.467 23.737C15.199 24.756 13.607 25.361 11.878 25.361C11.583 25.361 11.288 25.345 11 25.308C12.628 26.372 14.572 27 16.654 27C23.446 27 27.163 21.226 27.163 16.228C27.163 16.067 27.163 15.905 27.155 15.742C27.876 15.211 28.503 14.539 29 13.779C28.337 14.081 27.624 14.281 26.875 14.377C27.639 13.912 28.222 13.166 28.503 12.28Z" fill="white"/>
</svg>
