

<svg width="40" height="40" viewBox="0 0 40 40" fill="none" xmlns="http://www.w3.org/2000/svg">
<rect width="40" height="40" rx="20" fill="#171717"/>
<g clip-path="url(#clip0_2661_594)">
<path d="M18.7039 14.8141L20.6485 12.8696C21.0741 12.444 21.5793 12.1064 22.1354 11.876C22.6915 11.6457 23.2875 11.5272 23.8894 11.5272C24.4913 11.5272 25.0873 11.6457 25.6433 11.876C26.1994 12.1064 26.7047 12.444 27.1303 12.8696C27.5559 13.2952 27.8935 13.8005 28.1238 14.3565C28.3542 14.9126 28.4727 15.5086 28.4727 16.1105C28.4727 16.7124 28.3542 17.3084 28.1238 17.8645C27.8935 18.4205 27.5559 18.9258 27.1303 19.3514L25.1857 21.2959M21.2967 25.185L19.3521 27.1296C18.9265 27.5552 18.4212 27.8928 17.8652 28.1231C17.3091 28.3535 16.7131 28.472 16.1112 28.472C14.8956 28.472 13.7298 27.9891 12.8703 27.1296C12.0108 26.27 11.5279 25.1042 11.5279 23.8887C11.5279 22.6731 12.0108 21.5073 12.8703 20.6478L14.8148 18.7032" stroke="white" stroke-width="1.5" stroke-linecap="round" stroke-linejoin="round"/>
<path d="M17.4077 22.5928L22.5932 17.4073" stroke="white" stroke-width="1.5" stroke-linecap="round" stroke-linejoin="round"/>
</g>
<defs>
<clipPath id="clip0_2661_594">
<rect width="22" height="22" fill="white" transform="translate(4.44385 20) rotate(-45)"/>
</clipPath>
</defs>
</svg>
