<svg width="40" height="40" viewBox="0 0 40 40" fill="none" xmlns="http://www.w3.org/2000/svg">
<rect width="40" height="40" rx="20" fill="#343A40"/>
<path fill-rule="evenodd" clip-rule="evenodd" d="M26.6962 14.3593C27.4057 14.5565 27.9653 15.137 28.155 15.8735C28.5 17.2115 28.5 20 28.5 20C28.5 20 28.5 22.79 28.155 24.1258C27.9653 24.8645 27.4057 25.445 26.6962 25.643C25.4092 26 20.25 26 20.25 26C20.25 26 15.09 26 13.803 25.643C13.0935 25.445 12.534 24.8645 12.3442 24.1258C12 22.79 12 20 12 20C12 20 12 17.2115 12.3442 15.8735C12.534 15.137 13.0935 14.5565 13.803 14.3593C15.09 14 20.25 14 20.25 14C20.25 14 25.4092 14 26.6962 14.3593ZM18.6006 17.4297V22.5724L22.8876 19.9999L18.6006 17.4297Z" fill="white"/>
</svg>
