<svg width="40" height="40" viewBox="0 0 40 40" fill="none" xmlns="http://www.w3.org/2000/svg">
<rect width="40" height="40" rx="20" fill="#343A40"/>
<path fill-rule="evenodd" clip-rule="evenodd" d="M16.7013 12.0489C17.5547 12.0098 17.8276 12 20 12C22.1724 12 22.4444 12.0098 23.2978 12.0489C24.1493 12.088 24.7307 12.2222 25.2409 12.4204C25.7662 12.6249 26.2116 12.8987 26.6569 13.3431C27.1013 13.7884 27.3751 14.2347 27.5796 14.7591C27.7778 15.2693 27.912 15.8507 27.9511 16.7022C27.9902 17.5556 28 17.8284 28 20C28 22.1716 27.9902 22.4453 27.9511 23.2987C27.912 24.1502 27.7778 24.7307 27.5796 25.2409C27.3751 25.7653 27.1013 26.2116 26.6569 26.6569C26.2116 27.1013 25.7662 27.376 25.2409 27.5796C24.7307 27.7778 24.1493 27.912 23.2978 27.9511C22.4444 27.9902 22.1724 28 20 28C17.8276 28 17.5547 27.9902 16.7013 27.9511C15.8498 27.912 15.2684 27.7778 14.7591 27.5796C14.2338 27.376 13.7876 27.1013 13.3422 26.6569C12.8978 26.2116 12.624 25.7653 12.4196 25.2409C12.2222 24.7307 12.0871 24.1502 12.048 23.2987C12.0089 22.4453 12 22.1716 12 20C12 17.8284 12.0089 17.5556 12.048 16.7022C12.0871 15.8507 12.2222 15.2693 12.4196 14.7591C12.624 14.2347 12.8978 13.7884 13.3422 13.3431C13.7876 12.8987 14.2338 12.6249 14.7591 12.4204C15.2684 12.2222 15.8498 12.088 16.7013 12.0489ZM23.2324 13.4885C22.3889 13.4494 22.1347 13.4414 19.9995 13.4414C17.8635 13.4414 17.6102 13.4494 16.7667 13.4885C15.9862 13.5241 15.5631 13.653 15.2804 13.7623C14.9071 13.9072 14.6413 14.0823 14.3613 14.3605C14.0813 14.6423 13.9071 14.9072 13.7622 15.2805C13.6529 15.5641 13.5231 15.9863 13.4875 16.7659C13.4493 17.6103 13.4404 17.8645 13.4404 19.9996C13.4404 22.1347 13.4493 22.389 13.4875 23.2334C13.5231 24.013 13.6529 24.4352 13.7622 24.7187C13.9071 25.0921 14.0813 25.357 14.3613 25.6378C14.6413 25.9178 14.9071 26.0921 15.2804 26.237C15.5631 26.3463 15.9862 26.4761 16.7667 26.5116C17.6102 26.5507 17.8635 26.5587 19.9995 26.5587C22.1355 26.5587 22.3889 26.5507 23.2324 26.5116C24.012 26.4761 24.4351 26.3463 24.7178 26.237C25.092 26.0921 25.3569 25.9178 25.6378 25.6378C25.9169 25.357 26.092 25.0921 26.236 24.7187C26.3453 24.4352 26.4751 24.013 26.5107 23.2334C26.5498 22.389 26.5578 22.1347 26.5578 19.9996C26.5578 17.8645 26.5498 17.6103 26.5107 16.7659C26.4751 15.9863 26.3453 15.5641 26.236 15.2805C26.092 14.9072 25.9169 14.6423 25.6378 14.3605C25.3569 14.0823 25.092 13.9072 24.7178 13.7623C24.4351 13.653 24.012 13.5241 23.2324 13.4885ZM15.8915 20C15.8915 17.7307 17.7307 15.8925 20 15.8925C22.2684 15.8925 24.1075 17.7307 24.1075 20C24.1075 22.2694 22.2684 24.1085 20 24.1085C17.7307 24.1085 15.8915 22.2694 15.8915 20ZM17.333 19.9996C17.333 21.4716 18.5267 22.6662 19.9996 22.6662C21.4716 22.6662 22.6663 21.4716 22.6663 19.9996C22.6663 18.5276 21.4716 17.3329 19.9996 17.3329C18.5267 17.3329 17.333 18.5276 17.333 19.9996ZM24.2696 16.6905C24.8011 16.6905 25.2296 16.2612 25.2296 15.7305C25.2296 15.199 24.8011 14.7705 24.2696 14.7705C23.7389 14.7705 23.3096 15.199 23.3096 15.7305C23.3096 16.2612 23.7389 16.6905 24.2696 16.6905Z" fill="white"/>
</svg>
