<svg width="211" height="64" viewBox="0 0 211 64" fill="none" xmlns="http://www.w3.org/2000/svg">
<path d="M209.395 50.6562H51.6699V51.007H209.395V50.6562Z" fill="#E30613"/>
<path d="M132.8 40.3779L131.438 45.722H131.422L130.144 40.3779H127.589L125.493 48.5861H127.389L128.725 43.3422H128.741L130.086 48.5861H132.607L134.703 40.3779H132.8Z" fill="white"/>
<path d="M121.184 44.4945L122.629 42.1398H122.646L122.788 44.4945H121.176H121.184ZM121.836 40.3779C120.057 43.1251 118.304 45.9057 116.433 48.5861H118.805L120.224 46.2147H122.762L122.904 48.5861H125.201C124.925 45.8556 124.6 43.0667 124.433 40.3779H121.836Z" fill="white"/>
<path d="M137.384 42.5823C137.501 42.1481 138.127 41.9978 138.461 41.9894C139.095 41.9727 139.471 42.1481 139.889 42.4069C139.889 42.4069 140.298 40.787 140.315 40.7035C139.638 40.3277 138.903 40.2275 138.361 40.2275C136.44 40.2275 135.438 41.3882 135.246 42.3568C134.879 44.269 137.158 45.3295 136.916 46.2062C136.741 46.8575 136.114 46.8993 135.747 46.8993C135.146 46.8993 134.57 46.7072 134.06 46.415L133.601 48.3271C134.211 48.5359 135.087 48.7279 135.797 48.7279C138.043 48.7279 138.753 47.7176 138.995 46.5987C139.396 44.6865 137.116 43.6427 137.384 42.5823Z" fill="white"/>
<path d="M115.448 42.5817C115.557 42.1475 116.183 41.9972 116.517 41.9889C117.16 41.9722 117.536 42.1475 117.953 42.4064C117.953 42.4064 118.479 40.8449 118.488 40.7698C117.778 40.3105 116.968 40.2354 116.425 40.2354C114.496 40.2354 113.494 41.396 113.31 42.3646C112.951 44.2768 115.223 45.3373 114.972 46.214C114.788 46.8653 114.162 46.9071 113.812 46.9071C113.21 46.9071 112.634 46.715 112.125 46.4228L111.666 48.335C112.267 48.5437 113.152 48.7358 113.853 48.7358C116.099 48.7358 116.818 47.7254 117.051 46.6065C117.46 44.6943 115.173 43.6756 115.448 42.5901" fill="white"/>
<path d="M171.435 45.7049H171.427L170.15 40.3691H167.594L165.499 48.5689H167.402L168.738 43.3251H168.755L170.083 48.5689H172.613L174.7 40.3691H172.805L171.435 45.7049Z" fill="white"/>
<path d="M147.329 42.1227H150.452L150.902 40.3691H145.625L143.521 48.5689H145.692L146.519 45.3208H149.141L149.575 43.5672H146.97L147.329 42.1227Z" fill="white"/>
<path d="M181.572 40.3691H175.468L175.018 42.1227H176.997L175.343 48.5689H177.506L179.151 42.1227H181.122L181.572 40.3691Z" fill="white"/>
<path d="M182.332 40.3691L180.236 48.5689H182.399L184.495 40.3691H182.332Z" fill="white"/>
<path d="M189.38 45.3208L189.839 43.5589H187.125L187.493 42.1227H190.916L191.367 40.3691H185.781L183.685 48.5689H189.271L189.722 46.8071H186.299L186.683 45.3208H189.38Z" fill="white"/>
<path d="M203.233 45.3208L203.684 43.5589H200.92L201.287 42.1227H204.711L205.153 40.3691H199.575L197.471 48.5689H203.057L203.508 46.8071H200.093L200.469 45.3208H203.233Z" fill="white"/>
<path d="M163.57 44.4776C163.219 45.7886 162.217 46.9409 160.989 46.9409C159.678 46.9409 159.344 45.7636 159.662 44.4943C159.979 43.2251 160.931 42.0311 162.234 42.0311C163.536 42.0311 163.87 43.1583 163.57 44.4776ZM162.693 40.2441C160.255 40.2441 158.201 41.7722 157.507 44.4776C156.814 47.2081 158.084 48.7362 160.539 48.7362C162.835 48.7362 164.922 47.3835 165.691 44.7198C166.484 41.8307 165.148 40.2441 162.701 40.2441" fill="white"/>
<path d="M207.733 42.5739C207.85 42.1481 208.476 41.9894 208.81 41.9811C209.445 41.9644 209.829 42.1397 210.23 42.3986C210.23 42.3986 210.647 40.7786 210.656 40.6951C209.988 40.311 209.245 40.2275 208.702 40.2275C206.781 40.2275 205.771 41.3799 205.596 42.3485C205.228 44.2606 207.508 45.3211 207.257 46.1979C207.074 46.8575 206.447 46.8909 206.097 46.8909C205.487 46.8909 204.911 46.6905 204.41 46.4066L203.951 48.3104C204.56 48.5275 205.445 48.7112 206.138 48.7112C208.385 48.7112 209.103 47.7009 209.337 46.582C209.746 44.6614 207.433 43.6093 207.733 42.5656" fill="white"/>
<path d="M155.203 44.9617C156.296 44.7613 157.148 43.7927 157.382 42.8658C157.791 41.2459 157.324 40.3691 155.503 40.3691H151.838L149.75 48.5689H151.812L153.466 42.0893H154.535C154.844 42.0893 155.512 42.0893 155.294 42.9577C155.127 43.609 154.626 44.0348 153.675 44.0181H152.906L153.666 48.5606H155.996C155.996 48.5606 155.236 45.1287 155.211 44.9533" fill="white"/>
<path d="M195.826 44.9617C196.92 44.7613 197.763 43.7843 198.006 42.8658C198.423 41.2459 197.939 40.3691 196.127 40.3691H192.461L190.374 48.5689H192.444L194.098 42.0893H195.158C195.467 42.0893 196.135 42.0893 195.91 42.966C195.743 43.609 195.25 44.0432 194.298 44.0265H193.53L194.281 48.5689H196.603C196.603 48.5689 195.851 45.1371 195.826 44.9617Z" fill="white"/>
<path d="M82.3479 48.5689L82.7988 46.8154H79.3753L79.7594 45.3291H82.5483L82.9992 43.5756H80.2103L80.5777 42.131H84.0013L84.4438 40.3775L78.8576 40.3691L76.7617 48.5689H82.3479Z" fill="white"/>
<path d="M67.8772 48.5694L68.3281 46.8159H64.9046L65.2804 45.3295H68.0442L68.4868 43.576H65.7313L66.0987 42.1315H69.5222L69.9731 40.3779H64.3869L62.291 48.5694H67.8772Z" fill="white"/>
<path d="M87.0324 48.703C87.4165 48.703 88.502 48.5777 89.1116 48.4692L89.6376 46.5737C89.003 46.7407 88.3434 46.9077 87.4917 46.9077C86.164 46.9077 85.83 45.7304 86.1556 44.4611C86.4395 43.3673 87.4332 42.0062 89.1199 42.0062C89.6794 42.0062 90.1887 42.1482 90.6814 42.3319L91.149 40.4948C90.648 40.3028 89.8213 40.2109 89.2201 40.2109C86.7485 40.2109 84.6777 41.7307 83.9679 44.4528C83.2665 47.1833 84.5608 48.703 87.0324 48.703Z" fill="white"/>
<path d="M92.3517 48.5689L94.4476 40.3691H92.2765L90.1807 48.5689H92.3517Z" fill="white"/>
<path d="M55.962 42.7076H55.9871L55.8702 48.5694L57.7155 48.5777L60.6381 42.6993H60.6631L59.1601 48.5694H60.9971L63.0847 40.3779H60.2122L57.6571 45.5299H57.6404L57.774 40.3779H54.7346L52.6387 48.5694H54.4673L55.962 42.7076Z" fill="white"/>
<path d="M95.5332 48.5689L96.8692 43.3418H96.8942L98.2219 48.5689H100.744L102.84 40.3775H100.944L99.583 45.7049H99.5663L98.2887 40.3775L95.7419 40.3691L93.6377 48.5689H95.5332Z" fill="white"/>
<path d="M74.8333 44.4695C74.5243 45.6719 73.6726 46.8159 72.4702 46.8159H71.535L72.729 42.1315H73.8062C74.9585 42.1315 75.2174 42.9498 74.8249 44.4695M76.9959 44.4695C77.881 41.0042 76.0023 40.3779 74.9836 40.3779H71.0924L69.0049 48.5777H72.4368C74.7999 48.5777 76.3697 46.8576 76.9876 44.4695" fill="white"/>
<path d="M105.537 42.5817C105.637 42.1475 106.271 41.9972 106.605 41.9889C107.24 41.9805 107.616 42.1475 108.033 42.4064C108.033 42.4064 108.442 40.7865 108.459 40.703C107.791 40.3189 107.048 40.2354 106.513 40.2354C104.576 40.2354 103.583 41.3877 103.391 42.3563C103.031 44.2685 105.303 45.3289 105.061 46.2057C104.877 46.8653 104.251 46.8987 103.892 46.8987C103.29 46.8987 102.714 46.7067 102.213 46.4144L101.754 48.3266C102.355 48.5354 103.249 48.7274 103.95 48.7274C106.196 48.7274 106.906 47.717 107.148 46.5981C107.557 44.686 105.261 43.6672 105.545 42.5817" fill="white"/>
<path d="M22.1269 53.1114C22.7281 52.7607 24.0808 52.0342 24.2311 51.9424C24.49 51.7921 24.6486 51.8088 24.6486 51.8923C24.682 52.2012 24.6737 52.8358 25.0661 52.9695C25.183 53.0029 25.4669 52.8692 25.5254 52.9444C25.6673 53.1532 25.6757 53.1198 25.7091 53.1782C25.7592 53.2534 25.9512 53.2116 25.993 53.2534C26.1015 53.3536 25.993 53.4788 26.0514 53.5456C26.1433 53.6542 26.3353 53.4788 26.4355 53.5039C26.6109 53.5373 26.6526 53.7377 26.6192 53.8629C26.5775 54.0717 26.7027 54.2303 27.0367 53.9548C27.2204 53.8045 27.2288 53.8796 27.3791 53.8045C27.4709 53.7627 27.6212 53.7627 27.6797 53.8295C27.7465 53.8963 27.8467 54.0049 27.9385 54.0383C28.0805 54.0884 28.2308 54.0383 28.3226 54.0717C28.4479 54.1218 28.4563 54.3138 28.5648 54.3389C28.6734 54.3556 28.7903 54.1385 28.8654 54.2053C29.0658 54.389 28.6984 54.723 28.9573 54.7981C29.0992 54.8399 29.1493 54.723 29.2662 54.7063C29.3748 54.6896 29.4416 54.556 29.5418 54.556C29.642 54.556 29.7088 54.6645 29.8257 54.5977C29.9259 54.5476 30.0094 54.5059 30.0929 54.4474C30.2348 54.3639 30.3768 54.4057 30.4519 54.3472C30.5521 54.2721 30.477 54.055 30.7609 54.1134C31.0531 54.1635 30.7191 54.4307 30.836 54.5476C30.9362 54.6311 31.1784 54.5476 31.2619 54.5226C31.4122 54.4725 31.5625 54.2804 31.6126 54.1468C31.671 53.9798 31.9132 53.4538 32.0134 53.3118C32.1136 53.1615 32.3558 52.602 32.481 52.41C32.6063 52.2179 33.124 51.3996 33.1657 51.266C33.2158 51.1324 33.3995 50.9654 33.4496 50.8652C33.4914 50.765 33.5999 50.4477 33.7335 50.1889C33.8588 49.93 34.2095 49.4207 34.2512 49.3205C34.2846 49.2286 34.5602 48.594 34.652 48.4019C34.7439 48.2099 35.0862 47.7757 35.1614 47.5586C35.2365 47.3498 35.4703 46.9073 35.4703 46.9073L35.7125 46.5065C35.7125 46.5065 35.7876 46.3311 35.9045 46.089C36.0214 45.8468 36.3555 45.3375 36.4557 45.1538C36.5475 44.9784 36.8231 44.611 36.8231 44.611L37.0318 44.1434L37.1821 43.7843C37.1821 43.7843 37.3157 43.3668 37.3742 43.2583C37.441 43.1414 37.6581 42.8742 37.7249 42.7239C37.7833 42.5819 37.9837 41.939 38.0756 41.7469C38.1674 41.5549 38.635 40.7198 38.6851 40.5612C38.7269 40.4025 39.2195 39.5341 39.2613 39.3588C39.3114 39.1751 39.3281 38.9413 39.3949 38.8244C39.4617 38.7158 39.6537 38.4236 39.6871 38.3401C39.7122 38.2566 40.0378 37.4884 40.0879 37.3798C40.1381 37.2713 40.1631 37.0625 40.2967 37.0625C40.422 37.0625 40.5138 37.1961 40.5973 37.3214C40.6975 37.455 40.8896 37.4383 40.9981 37.5468C41.1067 37.6637 41.4824 38.0645 41.4991 38.123C41.5158 38.1898 41.7162 38.2065 41.7747 38.2649C41.8164 38.3317 41.8582 38.4904 41.9166 38.5238C41.9751 38.5572 42.3007 38.7826 42.3675 38.8745C42.4343 38.9747 42.5095 39.1667 42.593 39.2252C42.6765 39.2836 43.0439 39.5174 43.094 39.6093C43.1357 39.7011 43.6701 40.3524 43.7369 40.461C43.7954 40.5695 43.8455 40.7616 43.8956 40.8451C43.9373 40.9286 44.1378 41.0371 44.1545 41.1206C44.1712 41.1958 44.1879 41.4881 44.238 41.5716C44.2797 41.6551 44.5052 41.7469 44.5386 41.8304C44.572 41.9056 44.6722 42.2145 44.7139 42.2646C44.7557 42.3064 44.8559 42.3815 44.8893 42.44C44.9227 42.5068 44.9561 42.8575 44.9978 42.9159C45.0479 42.9827 45.2066 43.2583 45.2567 43.3668C45.3068 43.4837 45.4738 43.6841 45.4988 43.7676C45.5322 43.8511 45.5489 44.1684 45.574 44.277C45.6074 44.3939 45.7493 44.6277 45.766 44.6945C45.7744 44.7529 45.8161 44.9533 45.8161 44.9533L45.9414 45.2623C45.9414 45.2623 46.0833 45.5629 46.0833 45.6798C46.0833 45.7967 46.1167 45.922 46.1334 45.9971C46.1501 46.0723 46.2754 46.281 46.2754 46.3478C46.2754 46.4146 46.4507 46.782 46.4507 46.782C46.4507 46.782 46.4173 47.0993 46.4507 47.1828C46.4841 47.258 46.6261 47.4834 46.6261 47.5669C46.6261 47.6504 46.5843 47.8508 46.5843 47.8508L46.6595 47.9844C46.6595 47.9844 46.6177 48.1598 46.6595 48.2266C46.6845 48.2934 46.6261 48.4353 46.6595 48.4854C46.7096 48.5272 46.8432 48.8695 46.8432 48.8695C46.7513 48.9865 40.0378 52.0843 37.1654 53.4204C33.0321 55.3492 24.4232 59.6662 23.5046 60.2006C22.5861 60.7267 22.0183 61.0357 21.7929 60.9188C21.2835 60.6599 20.4485 59.9251 19.889 58.3469C19.4047 57.0193 19.4047 55.9087 19.4465 55.3576C19.4799 54.9401 19.4465 54.6144 20.0894 54.247C20.3149 54.1218 21.4923 53.4538 22.0935 53.1031" fill="#E30613"/>
<path d="M10.2118 29.3716C10.2452 29.4384 10.3871 29.4301 10.4873 29.4468C10.5458 29.4635 10.6543 29.5637 10.7128 29.572C10.7796 29.572 10.8714 29.547 10.9132 29.572C11.0134 29.6472 10.9967 29.7557 11.0635 29.8476C11.1303 29.9394 11.1637 30.1065 11.2639 30.1399C11.3558 30.1733 11.481 30.1566 11.5228 30.2484C11.5562 30.3403 11.481 30.4906 11.5562 30.6158C11.7315 30.9331 11.5729 31.8182 11.7399 31.885C11.8985 31.9435 12.3828 31.7932 12.5498 31.6429C12.7168 31.4926 12.9673 31.217 13.0926 31.1669C13.3347 31.0584 13.819 30.7912 14.0528 30.7494C14.2866 30.6993 14.4035 30.3236 14.629 30.2985C14.8545 30.2818 14.7709 30.0981 14.938 30.0397C15.0966 29.9729 15.3972 29.8059 15.4974 29.9061C15.5392 29.9478 15.631 30.0731 15.7813 30.1315C15.9483 30.1983 16.1404 30.1065 16.1738 30.3069C16.2155 30.5991 16.6497 30.3403 16.6497 30.3403C16.6497 30.3403 17.1841 29.9979 17.4096 29.8977C17.635 29.7975 18.2362 29.4885 18.2362 29.4885C18.2362 29.4885 18.7038 29.2464 18.9043 29.1545C26.1438 25.6809 31.8553 23.7604 37.0991 21.7313C45.2572 18.5666 59.3856 14.9427 62.066 14.2747C62.3499 14.2079 62.9761 14.1077 63.0513 14.0575C63.1264 14.0158 63.26 13.9824 63.3185 13.7235C63.3853 13.4647 63.1849 13.114 63.1849 12.9887C63.1849 12.8635 63.4771 12.3458 63.5105 12.1203C63.5356 11.8949 63.3185 11.8615 63.3185 11.8615C63.3185 11.8615 63.3435 11.5859 63.2851 11.3772C63.2266 11.1768 62.8676 10.9931 62.8008 10.8344C62.7423 10.6758 62.8008 10.1914 62.7423 10.0328C62.6839 9.87415 62.4835 9.74054 62.4835 9.74054C62.4835 9.74054 62.5336 9.65704 62.4835 9.51509C62.4417 9.37314 62.2914 9.38149 62.2914 9.38149C62.2914 9.38149 62.3499 9.07254 62.3248 8.96398C62.2998 8.85543 62.1328 8.77193 62.1328 8.77193C62.1328 8.77193 61.9407 8.64668 61.9407 8.52143C61.9407 8.39618 61.9073 8.29598 61.8071 8.22917C61.7069 8.16237 61.423 8.16237 61.3228 8.13732C61.2226 8.10392 61.0055 8.04547 60.8385 8.07052C60.6798 8.10392 60.613 8.22917 60.1621 8.32103C59.7112 8.42123 59.5192 8.32103 59.3271 8.35443C59.1351 8.38783 58.918 8.52143 58.6842 8.57988C56.4964 9.14769 46.468 12.0619 39.0781 14.8425C32.206 17.4226 24.0145 21.1551 19.0212 23.7437C15.2469 25.7143 13.2262 26.8499 12.3912 27.3676C11.957 27.6348 11.4894 27.9438 11.4142 28.069C11.2973 28.2694 11.1721 28.5617 10.9216 28.5951C10.6209 28.6452 10.6627 28.8038 10.5708 28.8289C10.4539 28.8539 10.3287 28.9792 10.2285 29.071C10.1366 29.1629 10.17 29.2881 10.2034 29.3633" fill="#E30613"/>
<path d="M41.433 24.8877C41.099 24.6873 41.2075 24.5036 41.6 24.3366C43.9881 23.3179 50.0252 21.1636 53.4905 20.0613C56.4465 19.1261 64.6045 16.4624 66.8757 15.8111C67.4268 15.6525 67.644 15.6608 67.8861 15.9113C68.504 16.571 69.1052 17.4478 69.673 18.5416C70.1907 19.552 70.6416 21.0132 70.817 21.9318C70.9506 22.6081 70.6333 22.725 70.2742 22.8837C67.7525 24.0109 61.515 26.7414 58.9264 27.9689C56.388 29.163 51.762 31.3924 50.1922 32.1857C49.5242 32.5197 49.6328 32.6533 49.1902 32.1439C49.0483 31.9936 48.8312 31.6262 48.7727 31.5344C48.7059 31.4342 47.8458 30.666 47.7456 30.5741C47.6538 30.4739 47.1695 29.8978 47.0359 29.8059C46.9106 29.7057 46.4931 29.1296 46.3679 29.0628C46.2343 28.996 46.0172 28.8957 45.9253 28.8039C45.8251 28.7037 45.6581 28.5033 45.5663 28.4448C45.4744 28.378 45.249 28.1526 45.249 28.1526L44.9484 27.8854L44.6895 27.5931C44.6895 27.5931 44.4641 27.3092 44.3054 27.2424C44.1468 27.1756 43.9296 26.9168 43.8545 26.8166C43.796 26.7247 43.2867 26.0818 43.0195 25.9148C42.7606 25.7561 42.1427 25.3553 42.0175 25.2551C41.8922 25.1633 41.7169 25.0631 41.4413 24.896" fill="#E30613"/>
<path d="M50.6176 33.6894C50.3754 33.4389 50.6844 33.4138 50.9683 33.2969C52.0287 32.8878 58.3164 30.9171 63.794 29.4726C69.255 28.0447 77.1459 26.3997 78.3232 26.1659C78.8159 26.0657 79.0079 26.1409 79.2584 26.5417C79.5507 27.0093 80.1519 28.5624 80.3857 29.8149C80.678 31.4098 80.3941 33.0297 80.2605 33.4138C80.1435 33.7311 79.701 33.7562 78.6322 34.0484C77.9892 34.2238 75.2671 34.9252 74.1482 35.2509C72.8623 35.6266 69.4638 36.6036 68.2029 37.0378C66.6498 37.5638 64.604 38.2402 64.604 38.2402L53.7739 38.4239C53.7739 38.4239 53.6153 37.6974 53.5234 37.6306C53.4232 37.5638 53.2646 37.2131 53.1644 37.1129C53.0642 37.0127 52.9389 36.662 52.9389 36.662C52.9389 36.662 52.847 36.2779 52.7468 36.2111C52.655 36.1443 52.4212 35.5932 52.321 35.5264C52.2208 35.4596 52.0037 35.1841 51.9118 35.0505C51.8116 34.9168 51.7532 34.7582 51.5945 34.6329C51.4359 34.5077 51.2355 34.2488 51.1102 34.182C50.9766 34.1152 50.8681 33.9232 50.6176 33.6727" fill="#E30613"/>
<path d="M37.5244 12.8054C37.2155 12.8138 36.9399 12.8054 36.8648 12.7219C36.8314 12.6718 36.8648 12.58 36.7896 12.5215C36.7145 12.4547 36.5642 12.4798 36.5141 12.5215C36.4723 12.5549 36.4807 12.5549 36.3721 12.5883C36.2636 12.6217 35.8544 12.4798 35.7041 12.5299C35.5622 12.58 35.2532 12.5883 35.153 12.5382C35.0528 12.4881 35.0361 12.2042 34.8524 12.1291C34.7606 12.0873 34.46 11.9203 34.3681 11.7533C34.2679 11.5863 34.009 11.3275 33.9589 11.2106C33.9005 11.0937 33.8253 10.9016 33.7836 10.8014C33.7502 10.7012 33.65 10.5008 33.5915 10.4257C33.5331 10.3505 33.4496 10.2921 33.3911 10.2253C33.3243 10.1501 33.2742 9.92466 33.2074 9.82446C33.174 9.77436 33.0989 9.67416 33.0655 9.59066C33.0237 9.51551 33.0237 9.43201 32.9987 9.34016C32.9653 9.2483 32.8484 9.12305 32.8317 9.03955C32.8066 8.95605 32.7732 8.38824 32.7816 7.95404C32.7899 7.51983 32.7816 7.13573 32.8317 6.95203C32.8734 6.77667 32.9653 6.60967 32.9987 6.43432C33.0321 6.25897 33.2659 5.66611 33.3243 5.38221C33.3828 5.10665 33.5247 4.58894 33.5999 4.40524C33.6667 4.22154 33.8587 3.74558 33.9589 3.58693C34.0591 3.42828 34.4182 2.89387 34.5602 2.71017C34.7021 2.52647 35.3701 1.86681 35.5288 1.74991C35.6874 1.63301 36.0465 1.3658 36.1634 1.2823C36.2302 1.2322 36.6978 0.906548 36.8481 0.814697C36.9566 0.747896 37.132 0.747896 37.132 0.747896L37.2906 0.589244C37.2906 0.589244 37.3741 0.489043 37.4576 0.430592C37.5411 0.372141 37.7499 0.372141 37.7499 0.372141C37.7499 0.372141 37.9837 0.188439 38.2259 0.23854C38.3344 0.25524 38.4012 0.0631875 38.5014 0.0464873C38.6016 0.0214369 38.944 -0.0286637 38.9941 0.0214369C39.0442 0.0715376 39.1026 0.129988 39.303 0.171739C39.4951 0.205139 39.6621 0.163389 39.7289 0.180089C39.8291 0.205139 39.9376 0.330391 40.0044 0.355441C40.0796 0.380491 40.9647 1.19045 41.0816 1.39085C41.1233 1.45766 41.14 1.59126 41.1567 1.63301C41.1901 1.69981 41.3404 1.80001 41.3989 2.01711C41.4406 2.19246 41.616 2.24257 41.641 2.50142C41.641 2.65172 41.9333 2.77697 42.0168 3.08593C42.0419 3.16108 42.0752 3.47003 42.1003 3.51178C42.117 3.56188 42.1838 3.57858 42.2172 3.68713C42.2506 3.79568 42.284 3.95434 42.2673 4.08794C42.2506 4.22154 42.4928 4.7142 42.4761 5.0148C42.451 5.3154 42.3926 5.64106 42.3174 5.86651C42.2423 6.09196 42.2924 6.52617 42.2423 6.70987C42.2005 6.88522 42.0669 7.31943 42.0335 7.45303C42.0085 7.58663 41.6327 8.49679 41.5742 8.597C41.5158 8.6972 41.2987 9.10635 41.2068 9.2316C41.115 9.34851 40.3635 10.3839 40.2382 10.5175C40.113 10.6511 39.779 10.9016 39.7122 11.0018C39.6203 11.1354 39.5535 11.2941 39.4533 11.4444C39.3114 11.6782 39.1026 11.5028 39.0108 11.6698C38.8772 11.9036 38.6267 11.9621 38.5766 12.0957C38.5014 12.3044 38.3428 12.4798 38.2676 12.5466C38.0839 12.6885 37.7081 12.8054 37.5244 12.8138" fill="#E30613"/>
<path d="M15.8729 44.5529C15.8729 44.5529 12.6999 45.6217 11.439 46.0726C10.2366 46.4985 8.92563 46.9661 8.04052 47.3252C6.97171 47.7594 5.07623 48.5359 4.61698 48.6946C3.91557 48.9451 3.62331 48.7948 3.42291 48.3773C3.23086 47.9598 2.7716 47.083 2.5211 46.0643C2.26225 45.0372 2.1704 44.1772 2.1537 43.8599C2.137 43.5509 2.4042 42.9831 2.7883 42.766C3.17241 42.5572 4.09927 41.9894 4.83408 41.5636C6.24525 40.7453 11.1134 38.1567 14.0108 36.6537C17.0753 35.0672 21.9267 32.7208 24.532 31.4266C27.1372 30.1406 31.4041 28.1199 31.9218 27.8945C32.4312 27.669 32.9739 27.4102 33.2328 27.4102C33.4916 27.4102 33.3914 27.5354 33.3914 27.6356C33.3914 27.7358 33.3079 27.7692 33.2745 27.9613C33.2495 28.1533 33.2662 28.3704 33.1994 28.5625C33.1326 28.7545 32.9656 28.9382 32.9322 29.0635C32.8988 29.1887 32.8737 29.648 32.7485 29.8066C32.6232 29.9736 32.1556 30.8588 32.0638 31.2763C31.9719 31.6938 31.7548 32.3785 31.663 32.5371C31.5628 32.6958 31.2622 33.297 31.2288 33.489C31.1954 33.6811 30.9866 34.132 30.9282 34.3324C30.8614 34.5244 30.4689 35.2426 30.4105 35.3678C30.3437 35.4931 30.0932 36.3531 30.0264 36.4867C29.9596 36.6203 29.709 36.9961 29.709 36.9961L29.5838 37.5472C29.5838 37.5472 29.2247 38.0649 29.2247 38.1567C29.2247 38.2486 28.9659 39.1254 28.8406 39.3174C28.7154 39.5095 28.1058 40.8872 27.9722 41.3715C27.847 41.8558 27.6215 42.5572 27.5547 42.7243C27.4879 42.8829 27.1372 43.4591 27.0704 43.6511C27.0036 43.8432 26.7197 44.8118 26.6195 45.0038C26.5277 45.1959 26.2688 45.7386 26.2688 45.939C26.2688 46.1394 26.0768 46.5486 25.9181 46.8993C25.7511 47.25 25.5674 47.8679 25.4672 48.0934C25.367 48.3188 25.2417 48.4691 25.2083 48.6027C25.1749 48.728 25.1415 49.087 25.1165 49.1872C25.0831 49.2791 25.0163 49.4461 25.0163 49.4461C24.8576 49.5212 16.2153 53.237 14.9962 53.8132C13.7687 54.3977 5.00108 58.5477 4.44998 58.8066C3.90722 59.0654 3.17241 59.6249 2.64635 59.2658C1.95329 58.7982 1.29363 57.8045 0.842729 56.9278C0.475324 56.2013 0.0745191 54.9822 0.00771824 54.1054C-0.0674327 52.9949 0.391823 52.7945 2.02009 51.8509C2.81335 51.3917 9.12603 48.06 11.1551 47.0162C11.7313 46.724 15.8813 44.5362 15.8813 44.5362" fill="#E30613"/>
<path d="M148.414 58.9648C148.681 57.9711 147.712 57.1862 146.001 57.1862C144.289 57.1862 142.903 57.9627 142.636 58.9648C142.418 59.7914 143.036 60.4594 144.23 60.6682L144.055 61.3278C143.078 61.3445 142.101 61.3612 141.133 61.3612L140.982 62.6221C142.836 62.6221 146.301 62.4551 148.439 62.1962C148.489 61.8121 148.573 61.428 148.623 61.0439C147.662 61.1358 146.719 61.2109 145.8 61.261L145.959 60.6598C147.236 60.4427 148.197 59.7831 148.414 58.9731M152.848 53.8628H151.103L148.389 63.9999H150.134L152.848 53.8628ZM149.483 57.0275L149.783 55.9086H142.919L142.619 57.0275H149.483ZM144.832 55.4744H148.188L148.489 54.3555H145.132L144.832 55.4744ZM146.66 58.9731C146.552 59.3656 145.984 59.6578 145.349 59.6578C144.715 59.6578 144.306 59.3656 144.414 58.9731C144.523 58.5639 145.074 58.255 145.725 58.255C146.376 58.255 146.777 58.5639 146.66 58.9731ZM137.208 53.8628H135.496L132.782 63.9999H134.494L135.872 58.8562H137.484L137.809 57.6287H136.198L137.208 53.8628ZM133.384 60.3676C131.789 59.4825 131.229 58.0796 131.797 55.9587L132.131 54.6978H130.336L129.985 56.0088C129.417 58.1381 128.19 59.6328 125.894 60.6682C126.152 61.0439 126.411 61.428 126.662 61.8038C127.831 61.3445 129.534 60.0419 130.11 58.9898C130.194 59.9751 131.221 61.0857 132.073 61.5449C132.507 61.1525 132.949 60.7684 133.384 60.3592M114.613 56.919C114.813 56.1842 115.606 55.6999 116.416 55.6999C117.226 55.6999 117.786 56.1842 117.585 56.919C117.385 57.6538 116.567 58.1464 115.757 58.1464C114.947 58.1464 114.412 57.6538 114.613 56.919ZM118.996 60.3008C118.095 60.3759 116.642 60.4678 115.055 60.5179C113.895 60.5513 112.684 60.5513 111.331 60.5513L111.172 61.8622C112.216 61.8706 113.652 61.8288 114.947 61.7787C116.166 61.7286 117.894 61.595 118.796 61.4865L118.988 60.3008H118.996ZM122.988 53.8628H121.268L118.554 63.9999H120.274L122.988 53.8628ZM112.934 56.919C112.542 58.3969 113.652 59.3489 115.448 59.3489C117.243 59.3489 118.896 58.3969 119.297 56.919C119.689 55.4661 118.554 54.5058 116.75 54.5058C114.947 54.5058 113.335 55.4661 112.943 56.919M106.964 59.9584L107.281 58.7644H96.7518L96.4344 59.9584H106.964ZM106.254 57.8959L106.571 56.7186H100.451L101.127 54.1968H99.382L98.3884 57.8959H106.263H106.254ZM104.743 63.7327L105.06 62.5553H98.7892L99.2818 60.7266H97.5367L96.7351 63.7327H104.751H104.743ZM85.8131 63.8162L86.0052 63.0897L86.4811 63.9915C87.1408 63.8245 88.2346 63.2651 88.7858 62.5553C88.9194 63.2567 89.6792 63.8078 90.1969 63.9331L91.3826 62.7557C90.2888 62.4801 89.8963 61.6451 90.1886 60.568L90.414 59.7163H88.719L88.4935 60.568C88.1929 61.6869 87.2577 62.4301 86.1054 62.7474L86.8986 59.7998H85.2871L85.0032 60.8686H84.0095L84.285 59.8415H82.6651L81.5963 63.8162H85.8298H85.8131ZM82.3812 56.7019C82.0055 58.1047 83.0576 59.0733 84.8111 59.0733C86.5646 59.0733 88.1428 58.113 88.5186 56.7019C88.9027 55.2824 87.8088 54.3388 86.0803 54.3388C84.3518 54.3388 82.7653 55.2824 82.3812 56.7019ZM91.2991 59.2654L92.7521 53.8545H90.9902L90.4057 56.0506H89.1031L88.7774 57.2613H90.08L89.5456 59.2737H91.3075L91.2991 59.2654ZM84.0512 56.7102C84.2433 55.9921 84.9364 55.5579 85.7463 55.5579C86.5563 55.5579 87.0406 56.0005 86.8485 56.7102C86.6565 57.4367 85.9217 57.8792 85.1201 57.8792C84.3184 57.8792 83.8508 57.4283 84.0429 56.7102M84.4938 62.6973H83.5001L83.7005 61.9374H84.6942L84.4938 62.6973ZM73.8725 61.8873C73.7222 62.4551 72.837 62.8058 71.4008 62.8058C69.9646 62.8058 69.33 62.4551 69.4803 61.8873C69.6306 61.3195 70.5324 60.9604 71.8935 60.9604C73.3297 60.9604 74.0228 61.3278 73.8725 61.8873ZM76.2188 59.566L77.7469 53.8545H75.985L75.5592 55.4577H73.7723L73.4633 56.61H75.2502L75.0164 57.4951H73.1376L72.8287 58.6475H74.7075L74.4653 59.5576H76.2272L76.2188 59.566ZM68.3864 54.4974L68.0608 55.7249H71.6764C71.1086 57.0108 68.9042 58.3051 66.6914 58.6725L67.0337 59.8582C70.5241 59.09 73.0959 57.278 73.9309 54.4891H68.3864V54.4974ZM75.6677 61.8873C76.0101 60.6014 74.7492 59.758 72.2191 59.758C69.6891 59.758 68.0357 60.6014 67.685 61.8873C67.3427 63.1732 68.5952 63.9915 71.0835 63.9915C73.5719 63.9915 75.3254 63.1649 75.6677 61.8873ZM52.5129 60.3676L52.1956 61.5533H58.4665L57.8152 63.9832H59.552L60.5206 60.3676H57.4478L57.8737 58.7644H62.2658L62.5831 57.5786H60.9715C61.4976 56.6184 61.9235 55.3575 62.2074 54.1885H54.375L54.0577 55.3742H60.1699C60.0113 56.0255 59.5938 57.0526 59.3099 57.5786H52.0536L51.7363 58.7644H56.1285L55.7026 60.3676H52.5212H52.5129Z" fill="white"/>
</svg>
