<svg width="264" height="119" viewBox="0 0 264 119" fill="none" xmlns="http://www.w3.org/2000/svg">
<path d="M0.072 46V0.431999H6.344L14.728 24.56H14.856L23.176 0.431999H29.512V46H22.984V18.288H22.856L16.392 37.872H13.128L6.728 18.288H6.6V46H0.072ZM35.2505 11.184C35.2505 9.34933 35.5705 7.728 36.2105 6.32C36.8505 4.912 37.7038 3.73866 38.7705 2.8C39.7945 1.904 40.9465 1.22133 42.2265 0.751999C43.5492 0.282664 44.8718 0.0479965 46.1945 0.0479965C47.5172 0.0479965 48.8185 0.282664 50.0985 0.751999C51.4212 1.22133 52.6158 1.904 53.6825 2.8C54.7065 3.73866 55.5385 4.912 56.1785 6.32C56.8185 7.728 57.1385 9.34933 57.1385 11.184V35.248C57.1385 37.168 56.8185 38.8107 56.1785 40.176C55.5385 41.5413 54.7065 42.672 53.6825 43.568C52.6158 44.5067 51.4212 45.2107 50.0985 45.68C48.8185 46.1493 47.5172 46.384 46.1945 46.384C44.8718 46.384 43.5492 46.1493 42.2265 45.68C40.9465 45.2107 39.7945 44.5067 38.7705 43.568C37.7038 42.672 36.8505 41.5413 36.2105 40.176C35.5705 38.8107 35.2505 37.168 35.2505 35.248V11.184ZM41.7785 35.248C41.7785 36.8267 42.2052 38 43.0585 38.768C43.9545 39.4933 44.9998 39.856 46.1945 39.856C47.3892 39.856 48.4132 39.4933 49.2665 38.768C50.1625 38 50.6105 36.8267 50.6105 35.248V11.184C50.6105 9.60533 50.1625 8.45333 49.2665 7.728C48.4132 6.96 47.3892 6.576 46.1945 6.576C44.9998 6.576 43.9545 6.96 43.0585 7.728C42.2052 8.45333 41.7785 9.60533 41.7785 11.184V35.248ZM69.4125 6.576V20.784H73.1245C74.2765 20.784 75.1938 20.6347 75.8765 20.336C76.5592 19.9947 77.0925 19.5253 77.4765 18.928C77.8178 18.3307 78.0525 17.6053 78.1805 16.752C78.3085 15.856 78.3725 14.832 78.3725 13.68C78.3725 12.528 78.3085 11.5253 78.1805 10.672C78.0525 9.776 77.7965 9.008 77.4125 8.368C76.6018 7.17333 75.0658 6.576 72.8045 6.576H69.4125ZM62.8845 46V0.431999H73.3805C81.0605 0.431999 84.9005 4.89067 84.9005 13.808C84.9005 16.496 84.4738 18.7787 83.6205 20.656C82.8098 22.5333 81.3592 24.048 79.2685 25.2L86.3085 46H79.3965L73.3165 26.544H69.4125V46H62.8845ZM90.1345 46V0.431999H109.591V6.576H96.6625V19.952H107.927V26.096H96.6625V39.472H109.591V46H90.1345ZM129.985 46V6.576H122.433V0.431999H144.065V6.576H136.513V46H129.985ZM146.947 46V0.431999H153.475V19.952H161.539V0.431999H168.067V46H161.539V25.712H153.475V46H146.947ZM187.381 30.064L184.181 13.552H184.053L180.853 30.064H187.381ZM171.253 46L181.429 0.431999H186.869L197.045 46H190.517L188.597 36.208H179.701L177.781 46H171.253ZM200.004 46V0.431999H206.276L216.132 27.888H216.26V0.431999H222.788V46H216.644L206.66 18.608H206.532V46H200.004ZM253.756 30.064L250.556 13.552H250.428L247.228 30.064H253.756ZM237.628 46L247.804 0.431999H253.244L263.42 46H256.892L254.972 36.208H246.076L244.156 46H237.628ZM0.072 118V72.432H9.864C11.656 72.432 13.2347 72.6667 14.6 73.136C15.9653 73.6053 17.2027 74.4373 18.312 75.632C19.4213 76.8267 20.1893 78.2347 20.616 79.856C21.0427 81.4347 21.256 83.5893 21.256 86.32C21.256 88.368 21.128 90.096 20.872 91.504C20.6587 92.912 20.168 94.2347 19.4 95.472C18.504 96.9653 17.3093 98.1387 15.816 98.992C14.3227 99.8027 12.36 100.208 9.928 100.208H6.6V118H0.072ZM6.6 78.576V94.064H9.736C11.0587 94.064 12.0827 93.872 12.808 93.488C13.5333 93.104 14.0667 92.5707 14.408 91.888C14.7493 91.248 14.9413 90.4587 14.984 89.52C15.0693 88.5813 15.112 87.536 15.112 86.384C15.112 85.3173 15.0907 84.3147 15.048 83.376C15.0053 82.3947 14.8133 81.5413 14.472 80.816C14.1307 80.0907 13.6187 79.536 12.936 79.152C12.2533 78.768 11.272 78.576 9.992 78.576H6.6ZM26.3265 118V72.432H32.8545V118H26.3265ZM59.933 105.008V107.824C59.933 109.232 59.6557 110.576 59.101 111.856C58.589 113.093 57.8637 114.203 56.925 115.184C55.9863 116.165 54.877 116.955 53.597 117.552C52.3597 118.107 51.0157 118.384 49.565 118.384C48.3277 118.384 47.069 118.213 45.789 117.872C44.509 117.531 43.357 116.933 42.333 116.08C41.309 115.227 40.4557 114.139 39.773 112.816C39.133 111.451 38.813 109.723 38.813 107.632V82.544C38.813 81.0507 39.069 79.664 39.581 78.384C40.093 77.104 40.8183 75.9947 41.757 75.056C42.6957 74.1173 43.805 73.392 45.085 72.88C46.4077 72.3253 47.8583 72.048 49.437 72.048C52.509 72.048 55.005 73.0507 56.925 75.056C57.8637 76.0373 58.589 77.2107 59.101 78.576C59.6557 79.8987 59.933 81.3493 59.933 82.928V85.488H53.405V83.312C53.405 82.032 53.0423 80.9227 52.317 79.984C51.5917 79.0453 50.6103 78.576 49.373 78.576C47.7517 78.576 46.6637 79.088 46.109 80.112C45.597 81.0933 45.341 82.352 45.341 83.888V107.184C45.341 108.507 45.6183 109.616 46.173 110.512C46.7703 111.408 47.8157 111.856 49.309 111.856C49.7357 111.856 50.1837 111.792 50.653 111.664C51.165 111.493 51.6343 111.237 52.061 110.896C52.445 110.555 52.765 110.085 53.021 109.488C53.277 108.891 53.405 108.144 53.405 107.248V105.008H59.933ZM69.5475 118V78.576H61.9955V72.432H83.6275V78.576H76.0755V118H69.5475ZM107.63 72.432V107.76C107.63 109.253 107.352 110.64 106.798 111.92C106.286 113.157 105.539 114.267 104.558 115.248C103.576 116.229 102.446 116.997 101.166 117.552C99.8855 118.107 98.5202 118.384 97.0695 118.384C95.6188 118.384 94.2535 118.107 92.9735 117.552C91.7362 116.997 90.6268 116.229 89.6455 115.248C88.6642 114.267 87.8962 113.157 87.3415 111.92C86.7868 110.64 86.5095 109.253 86.5095 107.76V72.432H93.0375V107.12C93.0375 108.741 93.4215 109.936 94.1895 110.704C94.9575 111.472 95.9175 111.856 97.0695 111.856C98.2215 111.856 99.1815 111.472 99.9495 110.704C100.718 109.936 101.102 108.741 101.102 107.12V72.432H107.63ZM120.288 78.576V92.784H124C125.152 92.784 126.069 92.6347 126.752 92.336C127.434 91.9947 127.968 91.5253 128.352 90.928C128.693 90.3307 128.928 89.6053 129.056 88.752C129.184 87.856 129.248 86.832 129.248 85.68C129.248 84.528 129.184 83.5253 129.056 82.672C128.928 81.776 128.672 81.008 128.288 80.368C127.477 79.1733 125.941 78.576 123.68 78.576H120.288ZM113.76 118V72.432H124.256C131.936 72.432 135.776 76.8907 135.776 85.808C135.776 88.496 135.349 90.7787 134.496 92.656C133.685 94.5333 132.234 96.048 130.144 97.2L137.184 118H130.272L124.192 98.544H120.288V118H113.76ZM141.01 118V72.432H160.466V78.576H147.538V91.952H158.802V98.096H147.538V111.472H160.466V118H141.01Z" fill="white"/>
</svg>
