<svg width="267" height="300" viewBox="0 0 267 300" fill="none" xmlns="http://www.w3.org/2000/svg">
<path d="M5.992 75V0.951999H16.184L29.808 40.16H30.016L43.536 0.951999H53.832V75H43.224V29.968H43.016L32.512 61.792H27.208L16.808 29.968H16.6V75H5.992ZM63.1571 18.424C63.1571 15.4427 63.6771 12.808 64.7171 10.52C65.7571 8.232 67.1437 6.32533 68.8771 4.8C70.5411 3.344 72.4131 2.23466 74.4931 1.472C76.6424 0.709329 78.7917 0.327994 80.9411 0.327994C83.0904 0.327994 85.2051 0.709329 87.2851 1.472C89.4344 2.23466 91.3757 3.344 93.1091 4.8C94.7731 6.32533 96.1251 8.232 97.1651 10.52C98.2051 12.808 98.7251 15.4427 98.7251 18.424V57.528C98.7251 60.648 98.2051 63.3173 97.1651 65.536C96.1251 67.7547 94.7731 69.592 93.1091 71.048C91.3757 72.5733 89.4344 73.7173 87.2851 74.48C85.2051 75.2427 83.0904 75.624 80.9411 75.624C78.7917 75.624 76.6424 75.2427 74.4931 74.48C72.4131 73.7173 70.5411 72.5733 68.8771 71.048C67.1437 69.592 65.7571 67.7547 64.7171 65.536C63.6771 63.3173 63.1571 60.648 63.1571 57.528V18.424ZM73.7651 57.528C73.7651 60.0933 74.4584 62 75.8451 63.248C77.3011 64.4267 78.9997 65.016 80.9411 65.016C82.8824 65.016 84.5464 64.4267 85.9331 63.248C87.3891 62 88.1171 60.0933 88.1171 57.528V18.424C88.1171 15.8587 87.3891 13.9867 85.9331 12.808C84.5464 11.56 82.8824 10.936 80.9411 10.936C78.9997 10.936 77.3011 11.56 75.8451 12.808C74.4584 13.9867 73.7651 15.8587 73.7651 18.424V57.528ZM118.67 10.936V34.024H124.702C126.574 34.024 128.065 33.7813 129.174 33.296C130.284 32.7413 131.15 31.9787 131.774 31.008C132.329 30.0373 132.71 28.8587 132.918 27.472C133.126 26.016 133.23 24.352 133.23 22.48C133.23 20.608 133.126 18.9787 132.918 17.592C132.71 16.136 132.294 14.888 131.67 13.848C130.353 11.9067 127.857 10.936 124.182 10.936H118.67ZM108.062 75V0.951999H125.118C137.598 0.951999 143.838 8.19733 143.838 22.688C143.838 27.056 143.145 30.7653 141.758 33.816C140.441 36.8667 138.084 39.328 134.686 41.2L146.126 75H134.894L125.014 43.384H118.67V75H108.062ZM152.344 75V0.951999H183.96V10.936H162.952V32.672H181.256V42.656H162.952V64.392H183.96V75H152.344ZM12.96 187V122.936H0.688V112.952H35.84V122.936H23.568V187H12.96ZM40.5233 187V112.952H51.1313V144.672H64.2353V112.952H74.8433V187H64.2353V154.032H51.1313V187H40.5233ZM106.229 161.104L101.029 134.272H100.821L95.6205 161.104H106.229ZM80.0205 187L96.5565 112.952H105.397L121.933 187H111.325L108.205 171.088H93.7485L90.6285 187H80.0205ZM126.74 187V112.952H136.932L152.948 157.568H153.156V112.952H163.764V187H153.78L137.556 142.488H137.348V187H126.74ZM214.088 161.104L208.888 134.272H208.68L203.48 161.104H214.088ZM187.88 187L204.416 112.952H213.256L229.792 187H219.184L216.064 171.088H201.608L198.488 187H187.88ZM5.992 299V224.952H21.904C24.816 224.952 27.3813 225.333 29.6 226.096C31.8187 226.859 33.8293 228.211 35.632 230.152C37.4347 232.093 38.6827 234.381 39.376 237.016C40.0693 239.581 40.416 243.083 40.416 247.52C40.416 250.848 40.208 253.656 39.792 255.944C39.4453 258.232 38.648 260.381 37.4 262.392C35.944 264.819 34.0027 266.725 31.576 268.112C29.1493 269.429 25.96 270.088 22.008 270.088H16.6V299H5.992ZM16.6 234.936V260.104H21.696C23.8453 260.104 25.5093 259.792 26.688 259.168C27.8667 258.544 28.7333 257.677 29.288 256.568C29.8427 255.528 30.1547 254.245 30.224 252.72C30.3627 251.195 30.432 249.496 30.432 247.624C30.432 245.891 30.3973 244.261 30.328 242.736C30.2587 241.141 29.9467 239.755 29.392 238.576C28.8373 237.397 28.0053 236.496 26.896 235.872C25.7867 235.248 24.192 234.936 22.112 234.936H16.6ZM48.6556 299V224.952H59.2636V299H48.6556ZM103.266 277.888V282.464C103.266 284.752 102.815 286.936 101.914 289.016C101.082 291.027 99.9035 292.829 98.3781 294.424C96.8528 296.019 95.0501 297.301 92.9701 298.272C90.9595 299.173 88.7755 299.624 86.4181 299.624C84.4075 299.624 82.3621 299.347 80.2821 298.792C78.2021 298.237 76.3301 297.267 74.6661 295.88C73.0021 294.493 71.6155 292.725 70.5061 290.576C69.4661 288.357 68.9461 285.549 68.9461 282.152V241.384C68.9461 238.957 69.3621 236.704 70.1941 234.624C71.0261 232.544 72.2048 230.741 73.7301 229.216C75.2555 227.691 77.0581 226.512 79.1381 225.68C81.2875 224.779 83.6448 224.328 86.2101 224.328C91.2021 224.328 95.2581 225.957 98.3781 229.216C99.9035 230.811 101.082 232.717 101.914 234.936C102.815 237.085 103.266 239.443 103.266 242.008V246.168H92.6581V242.632C92.6581 240.552 92.0688 238.749 90.8901 237.224C89.7115 235.699 88.1168 234.936 86.1061 234.936C83.4715 234.936 81.7035 235.768 80.8021 237.432C79.9701 239.027 79.5541 241.072 79.5541 243.568V281.424C79.5541 283.573 80.0048 285.376 80.9061 286.832C81.8768 288.288 83.5755 289.016 86.0021 289.016C86.6955 289.016 87.4235 288.912 88.1861 288.704C89.0181 288.427 89.7808 288.011 90.4741 287.456C91.0981 286.901 91.6181 286.139 92.0341 285.168C92.4501 284.197 92.6581 282.984 92.6581 281.528V277.888H103.266ZM118.89 299V234.936H106.618V224.952H141.77V234.936H129.498V299H118.89ZM180.773 224.952V282.36C180.773 284.787 180.322 287.04 179.421 289.12C178.589 291.131 177.376 292.933 175.781 294.528C174.186 296.123 172.349 297.371 170.269 298.272C168.189 299.173 165.97 299.624 163.613 299.624C161.256 299.624 159.037 299.173 156.957 298.272C154.946 297.371 153.144 296.123 151.549 294.528C149.954 292.933 148.706 291.131 147.805 289.12C146.904 287.04 146.453 284.787 146.453 282.36V224.952H157.061V281.32C157.061 283.955 157.685 285.896 158.933 287.144C160.181 288.392 161.741 289.016 163.613 289.016C165.485 289.016 167.045 288.392 168.293 287.144C169.541 285.896 170.165 283.955 170.165 281.32V224.952H180.773ZM201.342 234.936V258.024H207.374C209.246 258.024 210.737 257.781 211.846 257.296C212.956 256.741 213.822 255.979 214.446 255.008C215.001 254.037 215.382 252.859 215.59 251.472C215.798 250.016 215.902 248.352 215.902 246.48C215.902 244.608 215.798 242.979 215.59 241.592C215.382 240.136 214.966 238.888 214.342 237.848C213.025 235.907 210.529 234.936 206.854 234.936H201.342ZM190.734 299V224.952H207.79C220.27 224.952 226.51 232.197 226.51 246.688C226.51 251.056 225.817 254.765 224.43 257.816C223.113 260.867 220.756 263.328 217.358 265.2L228.798 299H217.566L207.686 267.384H201.342V299H190.734ZM235.015 299V224.952H266.631V234.936H245.623V256.672H263.927V266.656H245.623V288.392H266.631V299H235.015Z" fill="white"/>
</svg>
